<?xml version="1.0" encoding="UTF-8"?>
<svg version="1.1" xmlns="http://www.w3.org/2000/svg" width="1120" height="1120">
<path d="M0 0 C0.71709137 -0.00175232 1.43418274 -0.00350464 2.17300415 -0.00531006 C4.55562729 -0.00972951 6.93817682 -0.00678966 9.32080078 -0.00341797 C10.9712831 -0.00409113 12.62176533 -0.00506126 14.27224731 -0.00631714 C17.73749736 -0.00779436 21.20272169 -0.00563934 24.66796875 -0.00097656 C29.11244195 0.00471184 33.55685465 0.00144752 38.00132561 -0.00454903 C41.41220557 -0.00816159 44.82307118 -0.00701269 48.23395157 -0.00442123 C49.87263115 -0.00375343 51.51131202 -0.00457529 53.14999008 -0.00690079 C55.44117432 -0.0094377 57.73226056 -0.0055716 60.0234375 0 C61.98082352 0.00119339 61.98082352 0.00119339 63.97775269 0.00241089 C67.14111328 0.12939453 67.14111328 0.12939453 70.14111328 1.12939453 C72.47411153 1.16893687 74.80819517 1.17341185 77.14111328 1.12939453 C77.47111328 2.77939453 77.80111328 4.42939453 78.14111328 6.12939453 C80.00316406 6.15066406 80.00316406 6.15066406 81.90283203 6.17236328 C83.54479571 6.21927653 85.18672165 6.26752385 86.82861328 6.31689453 C87.64523437 6.32269531 88.46185547 6.32849609 89.30322266 6.33447266 C95.20956708 6.54968359 96.99819775 7.777309 101.14111328 12.12939453 C104.42329156 12.8572271 107.53270679 13.16297691 110.87744141 13.39892578 C112.64175291 13.55692383 114.39423547 13.83583637 116.14111328 14.12939453 C116.80111328 15.11939453 117.46111328 16.10939453 118.14111328 17.12939453 C117.81111328 17.45939453 117.48111328 17.78939453 117.14111328 18.12939453 C118.55310906 18.52161558 119.97104092 18.89250512 121.39111328 19.25439453 C122.18001953 19.46322266 122.96892578 19.67205078 123.78173828 19.88720703 C126.56142038 20.17253864 127.79998877 19.57917347 130.14111328 18.12939453 C130.47111328 20.10939453 130.80111328 22.08939453 131.14111328 24.12939453 C134.87598207 24.70398973 138.35404597 25.12939453 142.14111328 25.12939453 C142.80111328 25.45939453 143.46111328 25.78939453 144.14111328 26.12939453 C144.14111328 26.78939453 144.14111328 27.44939453 144.14111328 28.12939453 C143.48111328 28.12939453 142.82111328 28.12939453 142.14111328 28.12939453 C142.14111328 28.78939453 142.14111328 29.44939453 142.14111328 30.12939453 C143.46111328 30.12939453 144.78111328 30.12939453 146.14111328 30.12939453 C146.14111328 30.78939453 146.14111328 31.44939453 146.14111328 32.12939453 C148.45111328 32.12939453 150.76111328 32.12939453 153.14111328 32.12939453 C152.81111328 33.44939453 152.48111328 34.76939453 152.14111328 36.12939453 C153.11048828 36.54189453 154.07986328 36.95439453 155.07861328 37.37939453 C158.14111328 39.12939453 158.14111328 39.12939453 158.89111328 41.25439453 C158.97361328 41.87314453 159.05611328 42.49189453 159.14111328 43.12939453 C159.80111328 43.45939453 160.46111328 43.78939453 161.14111328 44.12939453 C161.14111328 44.78939453 161.14111328 45.44939453 161.14111328 46.12939453 C162.13111328 46.45939453 163.12111328 46.78939453 164.14111328 47.12939453 C164.61548828 47.62439453 165.08986328 48.11939453 165.57861328 48.62939453 C167.39305048 50.37125424 168.69670405 50.70794466 171.14111328 51.12939453 C170.81111328 52.44939453 170.48111328 53.76939453 170.14111328 55.12939453 C170.80111328 55.12939453 171.46111328 55.12939453 172.14111328 55.12939453 C173.80777995 56.7960612 175.47444661 58.46272786 177.14111328 60.12939453 C178.13111328 60.45939453 179.12111328 60.78939453 180.14111328 61.12939453 C181.84746283 63.20304306 183.44555534 65.26999684 185.01611328 67.44189453 C187.47757295 70.84051545 189.64639415 73.73814159 192.96142578 76.35986328 C193.68072266 76.94380859 194.40001953 77.52775391 195.14111328 78.12939453 C195.14111328 79.11939453 195.14111328 80.10939453 195.14111328 81.12939453 C195.97642578 81.22220703 195.97642578 81.22220703 196.82861328 81.31689453 C200.1317937 82.47747143 201.86006061 84.53152899 204.14111328 87.12939453 C204.14111328 87.78939453 204.14111328 88.44939453 204.14111328 89.12939453 C204.80111328 89.12939453 205.46111328 89.12939453 206.14111328 89.12939453 C206.14111328 90.11939453 206.14111328 91.10939453 206.14111328 92.12939453 C206.71861328 92.17064453 207.29611328 92.21189453 207.89111328 92.25439453 C211.23729508 93.55568745 212.21526531 96.18043982 214.14111328 99.12939453 C216.24150659 100.51807969 216.24150659 100.51807969 218.14111328 101.12939453 C218.14111328 102.11939453 218.14111328 103.10939453 218.14111328 104.12939453 C219.46111328 104.45939453 220.78111328 104.78939453 222.14111328 105.12939453 C222.47111328 106.44939453 222.80111328 107.76939453 223.14111328 109.12939453 C224.79111328 109.12939453 226.44111328 109.12939453 228.14111328 109.12939453 C228.14111328 110.11939453 228.14111328 111.10939453 228.14111328 112.12939453 C227.48111328 112.45939453 226.82111328 112.78939453 226.14111328 113.12939453 C226.47111328 114.77939453 226.80111328 116.42939453 227.14111328 118.12939453 C227.80111328 118.12939453 228.46111328 118.12939453 229.14111328 118.12939453 C229.14111328 119.11939453 229.14111328 120.10939453 229.14111328 121.12939453 C229.80111328 121.12939453 230.46111328 121.12939453 231.14111328 121.12939453 C231.14111328 121.78939453 231.14111328 122.44939453 231.14111328 123.12939453 C231.75986328 123.19126953 232.37861328 123.25314453 233.01611328 123.31689453 C233.71736328 123.58501953 234.41861328 123.85314453 235.14111328 124.12939453 C235.80777995 125.7960612 236.47444661 127.46272786 237.14111328 129.12939453 C239.18216968 130.01632757 239.18216968 130.01632757 241.14111328 130.12939453 C241.47111328 131.44939453 241.80111328 132.76939453 242.14111328 134.12939453 C242.75986328 134.19126953 243.37861328 134.25314453 244.01611328 134.31689453 C244.71736328 134.58501953 245.41861328 134.85314453 246.14111328 135.12939453 C246.80777995 136.7960612 247.47444661 138.46272786 248.14111328 140.12939453 C250.18216968 141.01632757 250.18216968 141.01632757 252.14111328 141.12939453 C252.23392578 142.30501953 252.23392578 142.30501953 252.32861328 143.50439453 C252.59673828 144.37064453 252.86486328 145.23689453 253.14111328 146.12939453 C254.79315784 146.83151347 256.46035097 147.49910866 258.14111328 148.12939453 C258.95361328 150.25439453 258.95361328 150.25439453 259.14111328 152.12939453 C259.92486328 152.21189453 260.70861328 152.29439453 261.51611328 152.37939453 C262.38236328 152.62689453 263.24861328 152.87439453 264.14111328 153.12939453 C265.20361328 155.06689453 265.20361328 155.06689453 266.14111328 157.12939453 C268.17470809 158.39744019 268.17470809 158.39744019 270.14111328 159.12939453 C270.14111328 160.44939453 270.14111328 161.76939453 270.14111328 163.12939453 C271.31673828 163.46970703 271.31673828 163.46970703 272.51611328 163.81689453 C275.84641973 165.48204775 275.92117291 166.71356148 277.14111328 170.12939453 C277.84236328 170.83064453 278.54361328 171.53189453 279.26611328 172.25439453 C281.14111328 174.12939453 281.14111328 174.12939453 281.14111328 177.12939453 C281.75986328 177.39751953 282.37861328 177.66564453 283.01611328 177.94189453 C285.14111328 179.12939453 285.14111328 179.12939453 287.14111328 182.12939453 C287.14111328 183.44939453 287.14111328 184.76939453 287.14111328 186.12939453 C287.80111328 186.12939453 288.46111328 186.12939453 289.14111328 186.12939453 C290.57692802 187.74396532 291.94256111 189.42158528 293.26611328 191.12939453 C293.99056641 192.05751953 294.71501953 192.98564453 295.46142578 193.94189453 C296.01572266 194.66376953 296.57001953 195.38564453 297.14111328 196.12939453 C298.13111328 195.79939453 299.12111328 195.46939453 300.14111328 195.12939453 C300.76611328 197.00439453 300.76611328 197.00439453 301.14111328 199.12939453 C300.48111328 199.78939453 299.82111328 200.44939453 299.14111328 201.12939453 C299.14111328 201.78939453 299.14111328 202.44939453 299.14111328 203.12939453 C300.56423828 203.46970703 300.56423828 203.46970703 302.01611328 203.81689453 C303.04736328 204.25001953 304.07861328 204.68314453 305.14111328 205.12939453 C305.80777995 206.7960612 306.47444661 208.46272786 307.14111328 210.12939453 C309.66045187 212.63748607 312.40633411 214.86126418 315.14111328 217.12939453 C318.92121799 220.61106992 318.92121799 220.61106992 320.01611328 223.19189453 C321.08622158 225.45834212 321.08622158 225.45834212 324.20361328 226.56689453 C325.17298828 227.08251953 326.14236328 227.59814453 327.14111328 228.12939453 C327.70361328 230.44189453 327.70361328 230.44189453 328.14111328 233.12939453 C329.29287129 234.72178338 329.29287129 234.72178338 330.70361328 236.25439453 C333.14111328 239.12939453 333.14111328 239.12939453 333.14111328 242.12939453 C333.96611328 242.60376953 334.79111328 243.07814453 335.64111328 243.56689453 C336.46611328 244.08251953 337.29111328 244.59814453 338.14111328 245.12939453 C338.14111328 246.44939453 338.14111328 247.76939453 338.14111328 249.12939453 C338.94548828 249.43876953 339.74986328 249.74814453 340.57861328 250.06689453 C343.14111328 251.12939453 343.14111328 251.12939453 344.14111328 252.12939453 C344.1817516 253.79556568 344.18383428 255.46327548 344.14111328 257.12939453 C345.46111328 256.46939453 346.78111328 255.80939453 348.14111328 255.12939453 C348.76611328 257.44189453 348.76611328 257.44189453 349.14111328 260.12939453 C348.48111328 261.11939453 347.82111328 262.10939453 347.14111328 263.12939453 C347.92486328 263.21189453 348.70861328 263.29439453 349.51611328 263.37939453 C350.38236328 263.62689453 351.24861328 263.87439453 352.14111328 264.12939453 C352.8404886 265.44586572 353.50840462 266.77961604 354.14111328 268.12939453 C356.19112199 268.93468343 356.19112199 268.93468343 358.14111328 269.12939453 C357.81111328 270.77939453 357.48111328 272.42939453 357.14111328 274.12939453 C358.79111328 274.12939453 360.44111328 274.12939453 362.14111328 274.12939453 C363.20361328 276.00439453 363.20361328 276.00439453 364.14111328 278.12939453 C363.81111328 278.78939453 363.48111328 279.44939453 363.14111328 280.12939453 C363.75986328 280.25314453 364.37861328 280.37689453 365.01611328 280.50439453 C367.14111328 281.12939453 367.14111328 281.12939453 369.14111328 283.12939453 C369.14111328 284.11939453 369.14111328 285.10939453 369.14111328 286.12939453 C369.80111328 285.13939453 370.46111328 284.14939453 371.14111328 283.12939453 C371.80111328 283.12939453 372.46111328 283.12939453 373.14111328 283.12939453 C373.38861328 284.40814453 373.63611328 285.68689453 373.89111328 287.00439453 C374.3850133 289.20313548 374.3850133 289.20313548 375.14111328 291.12939453 C377.09132411 292.35467401 377.09132411 292.35467401 379.14111328 293.12939453 C379.86270753 294.77302587 380.53462749 296.43989839 381.14111328 298.12939453 C381.80111328 298.45939453 382.46111328 298.78939453 383.14111328 299.12939453 C383.49126377 300.79260935 383.82308385 302.45974002 384.14111328 304.12939453 C384.80111328 305.11939453 385.46111328 306.10939453 386.14111328 307.12939453 C386.78048828 307.21189453 387.41986328 307.29439453 388.07861328 307.37939453 C388.75923828 307.62689453 389.43986328 307.87439453 390.14111328 308.12939453 C391.17597205 310.44747817 392.17665468 312.78114751 393.14111328 315.12939453 C394.13111328 315.45939453 395.12111328 315.78939453 396.14111328 316.12939453 C396.26486328 317.42876953 396.26486328 317.42876953 396.39111328 318.75439453 C397.2547425 322.64072603 398.73061144 324.98843759 401.14111328 328.12939453 C401.80111328 328.45939453 402.46111328 328.78939453 403.14111328 329.12939453 C403.14111328 329.78939453 403.14111328 330.44939453 403.14111328 331.12939453 C404.10017578 331.50064453 404.10017578 331.50064453 405.07861328 331.87939453 C407.14111328 333.12939453 407.14111328 333.12939453 407.89111328 335.25439453 C408.01486328 336.18251953 408.01486328 336.18251953 408.14111328 337.12939453 C408.73923828 337.23251953 409.33736328 337.33564453 409.95361328 337.44189453 C412.45369614 338.22763486 413.5164641 339.09858306 415.14111328 341.12939453 C415.14111328 341.78939453 415.14111328 342.44939453 415.14111328 343.12939453 C416.13111328 343.45939453 417.12111328 343.78939453 418.14111328 344.12939453 C418.8404886 345.44586572 419.50840462 346.77961604 420.14111328 348.12939453 C420.80111328 348.45939453 421.46111328 348.78939453 422.14111328 349.12939453 C422.14111328 349.78939453 422.14111328 350.44939453 422.14111328 351.12939453 C422.80111328 351.12939453 423.46111328 351.12939453 424.14111328 351.12939453 C424.14111328 352.11939453 424.14111328 353.10939453 424.14111328 354.12939453 C425.46111328 353.46939453 426.78111328 352.80939453 428.14111328 352.12939453 C428.42986328 353.16064453 428.71861328 354.19189453 429.01611328 355.25439453 C429.20431641 355.89248047 429.39251953 356.53056641 429.58642578 357.18798828 C430.07105656 358.88419601 430.48706896 360.59970618 430.89111328 362.31689453 C432.5213048 365.98482544 434.80691585 367.0274005 438.14111328 369.12939453 C438.14111328 370.11939453 438.14111328 371.10939453 438.14111328 372.12939453 C439.13111328 372.45939453 440.12111328 372.78939453 441.14111328 373.12939453 C442.82861328 374.69189453 442.82861328 374.69189453 444.14111328 376.12939453 C444.47111328 375.46939453 444.80111328 374.80939453 445.14111328 374.12939453 C446.46111328 374.45939453 447.78111328 374.78939453 449.14111328 375.12939453 C448.81111328 376.77939453 448.48111328 378.42939453 448.14111328 380.12939453 C447.48111328 380.12939453 446.82111328 380.12939453 446.14111328 380.12939453 C446.14111328 381.77939453 446.14111328 383.42939453 446.14111328 385.12939453 C447.13111328 385.45939453 448.12111328 385.78939453 449.14111328 386.12939453 C449.14111328 387.11939453 449.14111328 388.10939453 449.14111328 389.12939453 C450.13111328 389.12939453 451.12111328 389.12939453 452.14111328 389.12939453 C452.71861328 390.05751953 453.29611328 390.98564453 453.89111328 391.94189453 C456.7112607 395.93710337 458.61677165 396.56327627 463.14111328 398.12939453 C462.81111328 399.44939453 462.48111328 400.76939453 462.14111328 402.12939453 C464.45111328 402.12939453 466.76111328 402.12939453 469.14111328 402.12939453 C469.14111328 403.44939453 469.14111328 404.76939453 469.14111328 406.12939453 C468.48111328 406.12939453 467.82111328 406.12939453 467.14111328 406.12939453 C467.14111328 406.78939453 467.14111328 407.44939453 467.14111328 408.12939453 C468.79111328 408.45939453 470.44111328 408.78939453 472.14111328 409.12939453 C472.47111328 410.11939453 472.80111328 411.10939453 473.14111328 412.12939453 C472.81111328 412.78939453 472.48111328 413.44939453 472.14111328 414.12939453 C474.12111328 414.12939453 476.10111328 414.12939453 478.14111328 414.12939453 C477.81111328 416.10939453 477.48111328 418.08939453 477.14111328 420.12939453 C479.12111328 419.79939453 481.10111328 419.46939453 483.14111328 419.12939453 C483.14111328 420.77939453 483.14111328 422.42939453 483.14111328 424.12939453 C482.48111328 424.12939453 481.82111328 424.12939453 481.14111328 424.12939453 C481.63611328 424.91314453 482.13111328 425.69689453 482.64111328 426.50439453 C484.14111328 429.12939453 484.14111328 429.12939453 484.14111328 431.12939453 C484.97642578 431.53158203 484.97642578 431.53158203 485.82861328 431.94189453 C486.59173828 432.33376953 487.35486328 432.72564453 488.14111328 433.12939453 C489.00736328 433.54189453 489.87361328 433.95439453 490.76611328 434.37939453 C493.79319383 436.60987494 494.26459012 438.54361797 495.14111328 442.12939453 C495.80111328 442.12939453 496.46111328 442.12939453 497.14111328 442.12939453 C499.26611328 444.00439453 499.26611328 444.00439453 501.14111328 446.12939453 C501.14111328 446.78939453 501.14111328 447.44939453 501.14111328 448.12939453 C502.13111328 448.45939453 503.12111328 448.78939453 504.14111328 449.12939453 C504.14111328 449.78939453 504.14111328 450.44939453 504.14111328 451.12939453 C505.13111328 451.45939453 506.12111328 451.78939453 507.14111328 452.12939453 C509.18408203 454.56298828 509.18408203 454.56298828 511.32861328 457.56689453 C512.40175781 459.04996094 512.40175781 459.04996094 513.49658203 460.56298828 C515.14111328 463.12939453 515.14111328 463.12939453 515.14111328 465.12939453 C516.13111328 465.12939453 517.12111328 465.12939453 518.14111328 465.12939453 C518.32673828 466.33595703 518.32673828 466.33595703 518.51611328 467.56689453 C518.72236328 468.41251953 518.92861328 469.25814453 519.14111328 470.12939453 C519.80111328 470.45939453 520.46111328 470.78939453 521.14111328 471.12939453 C521.14111328 472.11939453 521.14111328 473.10939453 521.14111328 474.12939453 C521.80111328 474.12939453 522.46111328 474.12939453 523.14111328 474.12939453 C523.14111328 474.78939453 523.14111328 475.44939453 523.14111328 476.12939453 C524.13111328 476.45939453 525.12111328 476.78939453 526.14111328 477.12939453 C527.82861328 478.56689453 527.82861328 478.56689453 529.14111328 480.12939453 C529.14111328 480.78939453 529.14111328 481.44939453 529.14111328 482.12939453 C529.75986328 482.19126953 530.37861328 482.25314453 531.01611328 482.31689453 C531.71736328 482.58501953 532.41861328 482.85314453 533.14111328 483.12939453 C533.45048828 483.95439453 533.75986328 484.77939453 534.07861328 485.62939453 C534.42923828 486.45439453 534.77986328 487.27939453 535.14111328 488.12939453 C537.68886634 489.02325617 537.68886634 489.02325617 540.14111328 489.12939453 C540.29580078 490.08845703 540.29580078 490.08845703 540.45361328 491.06689453 C540.68048828 491.74751953 540.90736328 492.42814453 541.14111328 493.12939453 C542.13111328 493.45939453 543.12111328 493.78939453 544.14111328 494.12939453 C545.14111328 495.7960612 546.14111328 497.46272786 547.14111328 499.12939453 C548.13111328 499.45939453 549.12111328 499.78939453 550.14111328 500.12939453 C550.14111328 500.78939453 550.14111328 501.44939453 550.14111328 502.12939453 C550.80111328 502.12939453 551.46111328 502.12939453 552.14111328 502.12939453 C552.47111328 503.11939453 552.80111328 504.10939453 553.14111328 505.12939453 C553.82173828 505.62439453 554.50236328 506.11939453 555.20361328 506.62939453 C556.16267578 507.37189453 556.16267578 507.37189453 557.14111328 508.12939453 C557.14111328 509.11939453 557.14111328 510.10939453 557.14111328 511.12939453 C558.79111328 511.12939453 560.44111328 511.12939453 562.14111328 511.12939453 C563.20361328 513.00439453 563.20361328 513.00439453 564.14111328 515.12939453 C563.81111328 515.78939453 563.48111328 516.44939453 563.14111328 517.12939453 C563.94548828 517.10876953 564.74986328 517.08814453 565.57861328 517.06689453 C568.14111328 517.12939453 568.14111328 517.12939453 569.14111328 518.12939453 C569.1817516 519.79556568 569.18383428 521.46327548 569.14111328 523.12939453 C570.13111328 523.12939453 571.12111328 523.12939453 572.14111328 523.12939453 C572.14111328 523.78939453 572.14111328 524.44939453 572.14111328 525.12939453 C573.13111328 525.12939453 574.12111328 525.12939453 575.14111328 525.12939453 C575.14111328 526.44939453 575.14111328 527.76939453 575.14111328 529.12939453 C577.12111328 529.45939453 579.10111328 529.78939453 581.14111328 530.12939453 C581.47111328 531.11939453 581.80111328 532.10939453 582.14111328 533.12939453 C582.94548828 533.56251953 583.74986328 533.99564453 584.57861328 534.44189453 C587.86140279 536.60373152 588.0722392 538.44550757 589.14111328 542.12939453 C605.74838938 542.41783024 605.74838938 542.41783024 622.14111328 540.12939453 C622.47111328 541.44939453 622.80111328 542.76939453 623.14111328 544.12939453 C623.80111328 543.79939453 624.46111328 543.46939453 625.14111328 543.12939453 C627.17858959 542.90081339 629.22151631 542.71915175 631.26611328 542.56689453 C632.36181641 542.48310547 633.45751953 542.39931641 634.58642578 542.31298828 C635.42947266 542.25240234 636.27251953 542.19181641 637.14111328 542.12939453 C637.14111328 541.46939453 637.14111328 540.80939453 637.14111328 540.12939453 C637.80111328 539.79939453 638.46111328 539.46939453 639.14111328 539.12939453 C639.14111328 538.46939453 639.14111328 537.80939453 639.14111328 537.12939453 C639.75599609 536.99662109 640.37087891 536.86384766 641.00439453 536.72705078 C641.81263672 536.55044922 642.62087891 536.37384766 643.45361328 536.19189453 C644.25412109 536.01787109 645.05462891 535.84384766 645.87939453 535.66455078 C648.28651428 535.13053294 648.28651428 535.13053294 651.14111328 534.12939453 C651.14111328 533.46939453 651.14111328 532.80939453 651.14111328 532.12939453 C650.15111328 532.12939453 649.16111328 532.12939453 648.14111328 532.12939453 C648.14111328 531.46939453 648.14111328 530.80939453 648.14111328 530.12939453 C651.44111328 530.45939453 654.74111328 530.78939453 658.14111328 531.12939453 C658.73923828 530.13939453 659.33736328 529.14939453 659.95361328 528.12939453 C660.67548828 527.13939453 661.39736328 526.14939453 662.14111328 525.12939453 C663.13111328 525.12939453 664.12111328 525.12939453 665.14111328 525.12939453 C665.14111328 524.46939453 665.14111328 523.80939453 665.14111328 523.12939453 C665.80111328 522.79939453 666.46111328 522.46939453 667.14111328 522.12939453 C667.59486328 521.32501953 668.04861328 520.52064453 668.51611328 519.69189453 C670.14111328 517.12939453 670.14111328 517.12939453 672.20361328 516.12939453 C674.37186355 515.25144647 674.37186355 515.25144647 675.32861328 512.75439453 C676.16665725 510.21401135 676.16665725 510.21401135 676.57861328 507.87939453 C676.76423828 507.30189453 676.94986328 506.72439453 677.14111328 506.12939453 C678.13111328 505.79939453 679.12111328 505.46939453 680.14111328 505.12939453 C680.80111328 501.49939453 681.46111328 497.86939453 682.14111328 494.12939453 C683.13111328 493.79939453 684.12111328 493.46939453 685.14111328 493.12939453 C688.07036607 488.95323008 687.57669639 483.93767046 687.79736328 479.02783203 C688.14111328 476.12939453 688.14111328 476.12939453 690.14111328 474.12939453 C691.03529645 469.48965497 691.27087418 464.97991561 691.28637695 460.26367188 C691.28973557 459.61719193 691.29309418 458.97071198 691.29655457 458.30464172 C691.30596749 456.19151838 691.30800223 454.07847496 691.30908203 451.96533203 C691.31229946 450.48515796 691.31566389 449.00498421 691.31916809 447.52481079 C691.3251338 444.43336245 691.32701044 441.34194197 691.32641602 438.25048828 C691.32631411 434.29508927 691.34000729 430.33986861 691.35718822 426.38451195 C691.36831582 423.33213482 691.37033505 420.27980088 691.36980629 417.22740555 C691.37098368 415.76900234 691.3753919 414.31059792 691.38313866 412.85221481 C691.39296089 410.81360956 691.38879048 408.77495149 691.3840332 406.73632812 C691.38617073 404.99928116 691.38617073 404.99928116 691.38835144 403.22714233 C691.13962138 400.11070189 690.43476803 397.95177977 689.14111328 395.12939453 C688.81332921 393.77206905 688.52724447 392.4037959 688.28955078 391.02783203 C688.16064453 390.29048828 688.03173828 389.55314453 687.89892578 388.79345703 C687.77259766 388.03806641 687.64626953 387.28267578 687.51611328 386.50439453 C687.38205078 385.74126953 687.24798828 384.97814453 687.10986328 384.19189453 C686.58441105 381.13569278 686.14111328 378.23611289 686.14111328 375.12939453 C684.82111328 374.79939453 683.50111328 374.46939453 682.14111328 374.12939453 C681.48111328 370.49939453 680.82111328 366.86939453 680.14111328 363.12939453 C679.15111328 363.12939453 678.16111328 363.12939453 677.14111328 363.12939453 C676.86847656 362.06398438 676.86847656 362.06398438 676.59033203 360.97705078 C676.33896484 360.05794922 676.08759766 359.13884766 675.82861328 358.19189453 C675.58498047 357.27537109 675.34134766 356.35884766 675.09033203 355.41455078 C674.77708984 354.66044922 674.46384766 353.90634766 674.14111328 353.12939453 C673.15111328 352.79939453 672.16111328 352.46939453 671.14111328 352.12939453 C671.22361328 351.22189453 671.30611328 350.31439453 671.39111328 349.37939453 C671.08763274 345.43414746 670.03186207 344.65879972 667.14111328 342.12939453 C667.14111328 341.46939453 667.14111328 340.80939453 667.14111328 340.12939453 C666.30580078 339.82001953 666.30580078 339.82001953 665.45361328 339.50439453 C661.75333294 337.30422784 659.07276968 333.99270733 657.14111328 330.12939453 C655.12441501 328.99588919 655.12441501 328.99588919 653.14111328 328.12939453 C653.14111328 327.46939453 653.14111328 326.80939453 653.14111328 326.12939453 C652.48111328 326.12939453 651.82111328 326.12939453 651.14111328 326.12939453 C650.72861328 325.09814453 650.31611328 324.06689453 649.89111328 323.00439453 C647.99435 318.61423352 646.08371555 314.31654036 641.89111328 311.75439453 C641.02486328 311.44501953 641.02486328 311.44501953 640.14111328 311.12939453 C640.14111328 310.13939453 640.14111328 309.14939453 640.14111328 308.12939453 C639.15111328 307.79939453 638.16111328 307.46939453 637.14111328 307.12939453 C636.68736328 306.30439453 636.23361328 305.47939453 635.76611328 304.62939453 C634.36178055 301.88086681 634.36178055 301.88086681 631.45361328 301.31689453 C630.30892578 301.22408203 630.30892578 301.22408203 629.14111328 301.12939453 C629.14111328 299.80939453 629.14111328 298.48939453 629.14111328 297.12939453 C628.15111328 296.79939453 627.16111328 296.46939453 626.14111328 296.12939453 C625.81111328 294.47939453 625.48111328 292.82939453 625.14111328 291.12939453 C624.35736328 291.06751953 623.57361328 291.00564453 622.76611328 290.94189453 C621.89986328 290.67376953 621.03361328 290.40564453 620.14111328 290.12939453 C619.07861328 287.75439453 619.07861328 287.75439453 618.14111328 285.12939453 C617.18205078 284.44876953 617.18205078 284.44876953 616.20361328 283.75439453 C613.18147735 281.37331774 612.48957097 278.7028074 611.14111328 275.12939453 C610.81111328 275.78939453 610.48111328 276.44939453 610.14111328 277.12939453 C609.48111328 277.12939453 608.82111328 277.12939453 608.14111328 277.12939453 C606.94823917 273.25255366 606.14111328 270.2131753 606.14111328 266.12939453 C604.82111328 266.45939453 603.50111328 266.78939453 602.14111328 267.12939453 C600.87873597 264.60463991 601.04254924 262.81738987 601.07861328 260.00439453 C601.09214844 258.63927734 601.09214844 258.63927734 601.10595703 257.24658203 C601.12335938 256.19857422 601.12335938 256.19857422 601.14111328 255.12939453 C599.82111328 255.12939453 598.50111328 255.12939453 597.14111328 255.12939453 C595.34835462 252.01028597 594.7982061 249.45257025 594.51611328 245.87939453 C594.44134766 244.98736328 594.36658203 244.09533203 594.28955078 243.17626953 C594.24056641 242.50080078 594.19158203 241.82533203 594.14111328 241.12939453 C593.81111328 241.78939453 593.48111328 242.44939453 593.14111328 243.12939453 C592.48111328 243.12939453 591.82111328 243.12939453 591.14111328 243.12939453 C589.16672528 239.79059206 588.77575489 236.97593687 588.51611328 233.12939453 C588.44134766 232.09814453 588.36658203 231.06689453 588.28955078 230.00439453 C588.17136088 227.71524284 588.14111328 225.42159529 588.14111328 223.12939453 C586.49111328 223.12939453 584.84111328 223.12939453 583.14111328 223.12939453 C582.99825614 215.7008231 582.99825614 215.7008231 584.14111328 212.12939453 C583.48111328 212.12939453 582.82111328 212.12939453 582.14111328 212.12939453 C582.47111328 210.14939453 582.80111328 208.16939453 583.14111328 206.12939453 C582.48111328 206.12939453 581.82111328 206.12939453 581.14111328 206.12939453 C581.14111328 207.11939453 581.14111328 208.10939453 581.14111328 209.12939453 C580.15111328 208.79939453 579.16111328 208.46939453 578.14111328 208.12939453 C578.16173828 207.36626953 578.18236328 206.60314453 578.20361328 205.81689453 C578.27054169 203.02753667 578.27054169 203.02753667 577.14111328 200.12939453 C577.09380973 198.25499133 577.10389977 196.3790252 577.14111328 194.50439453 C577.18632684 187.33051021 577.01316494 180.17403941 576.76611328 173.00439453 C576.73517578 171.90144043 576.70423828 170.79848633 576.67236328 169.66210938 C576.61435547 168.09517334 576.61435547 168.09517334 576.55517578 166.49658203 C576.52375488 165.55927246 576.49233398 164.62196289 576.45996094 163.65625 C576.1294405 161.03688819 575.35221359 159.44345052 574.14111328 157.12939453 C573.89111328 153.50439453 573.89111328 153.50439453 574.14111328 150.12939453 C574.80111328 149.46939453 575.46111328 148.80939453 576.14111328 148.12939453 C576.51512542 145.1556228 576.51512542 145.1556228 576.55517578 141.63720703 C576.57454193 140.98322433 576.59390808 140.32924164 576.61386108 139.65544128 C576.67422356 137.52189394 576.72038479 135.38830144 576.76611328 133.25439453 C576.80457605 131.79368526 576.84364016 130.33299169 576.88330078 128.87231445 C577.11388332 119.93462928 577.24181405 110.9981861 577.10449219 102.05761719 C577.05977177 98.2732571 577.21246598 94.80770845 578.14111328 91.12939453 C579.13111328 91.12939453 580.12111328 91.12939453 581.14111328 91.12939453 C581.47111328 92.11939453 581.80111328 93.10939453 582.14111328 94.12939453 C582.47111328 88.84939453 582.80111328 83.56939453 583.14111328 78.12939453 C584.46111328 78.12939453 585.78111328 78.12939453 587.14111328 78.12939453 C588.02803175 74.20161276 588.43596678 70.318108 588.76220703 66.31298828 C589.1727465 63.9470959 589.97299155 62.21498839 591.14111328 60.12939453 C592.46111328 60.45939453 593.78111328 60.78939453 595.14111328 61.12939453 C595.40923828 60.20126953 595.67736328 59.27314453 595.95361328 58.31689453 C597.11147573 55.20894796 597.91279689 54.35771092 600.14111328 52.12939453 C600.8630849 49.52328376 600.8630849 49.52328376 601.14111328 47.12939453 C602.46111328 47.78939453 603.78111328 48.44939453 605.14111328 49.12939453 C605.38861328 48.49001953 605.63611328 47.85064453 605.89111328 47.19189453 C606.50986328 46.17095703 606.50986328 46.17095703 607.14111328 45.12939453 C607.80111328 45.00564453 608.46111328 44.88189453 609.14111328 44.75439453 C609.80111328 44.54814453 610.46111328 44.34189453 611.14111328 44.12939453 C611.47111328 43.13939453 611.80111328 42.14939453 612.14111328 41.12939453 C612.47111328 40.13939453 612.80111328 39.14939453 613.14111328 38.12939453 C615.26611328 37.25439453 615.26611328 37.25439453 617.14111328 37.12939453 C617.14111328 36.46939453 617.14111328 35.80939453 617.14111328 35.12939453 C618.67236328 33.62158203 618.67236328 33.62158203 620.64111328 32.00439453 C621.29080078 31.46556641 621.94048828 30.92673828 622.60986328 30.37158203 C623.11517578 29.96166016 623.62048828 29.55173828 624.14111328 29.12939453 C623.81111328 28.13939453 623.48111328 27.14939453 623.14111328 26.12939453 C624.46111328 26.12939453 625.78111328 26.12939453 627.14111328 26.12939453 C627.14111328 25.46939453 627.14111328 24.80939453 627.14111328 24.12939453 C629.12111328 23.79939453 631.10111328 23.46939453 633.14111328 23.12939453 C633.14111328 22.46939453 633.14111328 21.80939453 633.14111328 21.12939453 C641.06111328 19.64439453 641.06111328 19.64439453 649.14111328 18.12939453 C648.15111328 17.79939453 647.16111328 17.46939453 646.14111328 17.12939453 C646.14111328 16.46939453 646.14111328 15.80939453 646.14111328 15.12939453 C652.31939565 12.22196754 657.28590165 11.87711148 664.09033203 12.12158203 C666.94331731 12.12888801 669.37684505 11.79610115 672.14111328 11.12939453 C672.47111328 9.80939453 672.80111328 8.48939453 673.14111328 7.12939453 C675.90387505 7.65207919 678.46720088 8.2380904 681.14111328 9.12939453 C681.47111328 8.46939453 681.80111328 7.80939453 682.14111328 7.12939453 C685.99521535 7.07092408 689.84920193 7.03564048 693.70361328 7.00439453 C694.78964844 6.98763672 695.87568359 6.97087891 696.99462891 6.95361328 C702.7859077 6.91840794 707.68245971 7.14015779 713.14111328 9.12939453 C713.14111328 8.46939453 713.14111328 7.80939453 713.14111328 7.12939453 C715.12111328 7.12939453 717.10111328 7.12939453 719.14111328 7.12939453 C719.47111328 8.44939453 719.80111328 9.76939453 720.14111328 11.12939453 C724.13193367 11.82345025 727.77833895 12.14834612 731.82861328 12.00439453 C737.86641036 11.91136222 743.376299 13.46532443 749.14111328 15.12939453 C748.81111328 16.11939453 748.48111328 17.10939453 748.14111328 18.12939453 C751.01099555 19.56433567 753.87036402 19.40560926 757.04736328 19.55517578 C757.73830078 19.74466797 758.42923828 19.93416016 759.14111328 20.12939453 C759.80111328 21.44939453 760.46111328 22.76939453 761.14111328 24.12939453 C764.11111328 24.12939453 767.08111328 24.12939453 770.14111328 24.12939453 C770.14111328 24.78939453 770.14111328 25.44939453 770.14111328 26.12939453 C770.80111328 26.12939453 771.46111328 26.12939453 772.14111328 26.12939453 C772.14111328 27.11939453 772.14111328 28.10939453 772.14111328 29.12939453 C773.08083984 29.38462891 773.08083984 29.38462891 774.03955078 29.64501953 C774.85681641 29.88736328 775.67408203 30.12970703 776.51611328 30.37939453 C777.73427734 30.72744141 777.73427734 30.72744141 778.97705078 31.08251953 C781.63433588 32.36799319 781.96728793 33.5027629 783.14111328 36.12939453 C783.98673828 36.43876953 784.83236328 36.74814453 785.70361328 37.06689453 C786.50798828 37.41751953 787.31236328 37.76814453 788.14111328 38.12939453 C788.47444661 39.7960612 788.80777995 41.46272786 789.14111328 43.12939453 C790.79315784 43.83151347 792.46035097 44.49910866 794.14111328 45.12939453 C794.95361328 47.25439453 794.95361328 47.25439453 795.14111328 49.12939453 C795.88361328 49.19126953 796.62611328 49.25314453 797.39111328 49.31689453 C801.03070959 50.3922298 801.93192894 52.09176606 804.14111328 55.12939453 C806.69515229 57.74892172 809.30851675 60.28935784 811.95361328 62.81689453 C814.14111328 65.12939453 814.14111328 65.12939453 814.14111328 67.12939453 C814.75986328 67.35626953 815.37861328 67.58314453 816.01611328 67.81689453 C818.14111328 69.12939453 818.14111328 69.12939453 819.01611328 71.62939453 C819.38736328 72.45439453 819.75861328 73.27939453 820.14111328 74.12939453 C821.04861328 74.39751953 821.95611328 74.66564453 822.89111328 74.94189453 C827.52971329 76.63676761 829.680675 79.94141448 832.14111328 84.12939453 C832.14111328 84.78939453 832.14111328 85.44939453 832.14111328 86.12939453 C833.10017578 86.53158203 833.10017578 86.53158203 834.07861328 86.94189453 C836.14111328 88.12939453 836.14111328 88.12939453 837.14111328 91.12939453 C838.79111328 91.12939453 840.44111328 91.12939453 842.14111328 91.12939453 C842.14111328 94.09939453 842.14111328 97.06939453 842.14111328 100.12939453 C843.13111328 100.45939453 844.12111328 100.78939453 845.14111328 101.12939453 C845.14111328 101.78939453 845.14111328 102.44939453 845.14111328 103.12939453 C846.13111328 103.45939453 847.12111328 103.78939453 848.14111328 104.12939453 C848.47111328 107.09939453 848.80111328 110.06939453 849.14111328 113.12939453 C850.62611328 112.63439453 850.62611328 112.63439453 852.14111328 112.12939453 C855.19465955 116.32802065 855.14111328 119.04791851 855.14111328 124.12939453 C856.7233893 128.43783377 856.7233893 128.43783377 860.14111328 131.12939453 C860.32673828 132.83095703 860.32673828 132.83095703 860.51611328 134.56689453 C860.82548828 136.33033203 860.82548828 136.33033203 861.14111328 138.12939453 C862.11564453 138.55091797 862.11564453 138.55091797 863.10986328 138.98095703 C865.14111328 140.12939453 865.14111328 140.12939453 865.89892578 142.84423828 C866.02009766 143.90771484 866.14126953 144.97119141 866.26611328 146.06689453 C866.83130126 150.88982672 866.83130126 150.88982672 869.14111328 155.12939453 C869.14111328 156.11939453 869.14111328 157.10939453 869.14111328 158.12939453 C870.13111328 158.45939453 871.12111328 158.78939453 872.14111328 159.12939453 C872.80111328 166.38939453 873.46111328 173.64939453 874.14111328 181.12939453 C875.13111328 181.45939453 876.12111328 181.78939453 877.14111328 182.12939453 C878.26611328 188.87939453 878.26611328 188.87939453 877.14111328 191.12939453 C877.80111328 191.12939453 878.46111328 191.12939453 879.14111328 191.12939453 C879.19009766 192.21478516 879.23908203 193.30017578 879.28955078 194.41845703 C879.36463314 195.86379238 879.44017856 197.30910372 879.51611328 198.75439453 C879.54705078 199.46724609 879.57798828 200.18009766 879.60986328 200.91455078 C879.85369044 205.34407746 880.61666901 208.929395 882.14111328 213.12939453 C885.23383512 222.21209448 885.80409094 231.13674378 886.20361328 240.62939453 C886.33127188 243.49447788 886.46733499 246.35895855 886.61376953 249.22314453 C886.66576508 250.25129524 886.66576508 250.25129524 886.71881104 251.30021667 C887.00555846 256.26949258 887.70264124 261.03760127 888.77319336 265.89428711 C889.31669462 269.19604823 888.86272336 271.88214918 888.14111328 275.12939453 C889.13111328 275.45939453 890.12111328 275.78939453 891.14111328 276.12939453 C891.14111328 279.75939453 891.14111328 283.38939453 891.14111328 287.12939453 C890.48111328 287.12939453 889.82111328 287.12939453 889.14111328 287.12939453 C889.14111328 294.05939453 889.14111328 300.98939453 889.14111328 308.12939453 C890.13111328 308.12939453 891.12111328 308.12939453 892.14111328 308.12939453 C892.14111328 310.43939453 892.14111328 312.74939453 892.14111328 315.12939453 C891.48111328 315.12939453 890.82111328 315.12939453 890.14111328 315.12939453 C890.1240035 360.20963959 890.10808178 405.28988502 890.09877014 450.37013245 C890.09863208 451.03680025 890.09849403 451.70346805 890.09835179 452.3903379 C890.09535923 466.87707291 890.092589 481.36380795 890.09004795 495.85054305 C890.08880056 502.95431712 890.08750401 510.05809118 890.08618164 517.16186523 C890.08605088 517.86879507 890.08592012 518.5757249 890.0857854 519.30407686 C890.08152023 542.23844425 890.07400608 565.1728092 890.06481606 588.10717511 C890.05539318 611.66533492 890.0492301 635.22349336 890.04719829 658.78165503 C890.0458814 673.96964704 890.04166883 689.15763184 890.03319681 704.34562159 C890.02793141 714.28848332 890.02630851 724.23134138 890.0276119 734.1742044 C890.02825561 739.92001417 890.02723415 745.66581159 890.02190781 751.41161919 C890.01707544 756.66256148 890.01677355 761.913483 890.02021439 767.16442621 C890.02064024 769.07291094 890.01934314 770.98139692 890.0162301 772.88987916 C890.0122688 775.46638902 890.0143482 778.04282195 890.01806545 780.61933041 C890.01543844 781.37555879 890.01281143 782.13178717 890.01010481 782.91093156 C889.71835113 786.30723214 889.71835113 786.30723214 891.14111328 789.12939453 C891.28226489 791.79998304 891.18358435 794.45371691 891.14111328 797.12939453 C890.48111328 797.12939453 889.82111328 797.12939453 889.14111328 797.12939453 C886.81330867 802.92883879 886.32359869 808.84702614 885.64111328 815.00439453 C884.75511781 822.93940889 883.87149521 830.52941124 881.04345703 838.04736328 C879.61640256 842.9215883 879.74767089 847.8257118 879.66259766 852.87744141 C879.46903134 858.74580567 878.27759362 863.6640369 876.14111328 869.12939453 C875.48111328 869.12939453 874.82111328 869.12939453 874.14111328 869.12939453 C873.97095703 870.38236328 873.80080078 871.63533203 873.62548828 872.92626953 C873.3815654 874.57743978 873.13672558 876.22847474 872.89111328 877.87939453 C872.78154297 878.70439453 872.67197266 879.52939453 872.55908203 880.37939453 C871.79456276 885.36888872 871.01875322 887.69401088 867.14111328 891.12939453 C866.63499833 893.31040882 866.63499833 893.31040882 866.70361328 895.56689453 C866.39023302 900.36944704 864.67294228 901.85599204 861.14111328 905.12939453 C860.16930376 907.46075575 859.67697749 909.64493321 859.14111328 912.12939453 C858.48111328 912.12939453 857.82111328 912.12939453 857.14111328 912.12939453 C857.03798828 912.97501953 856.93486328 913.82064453 856.82861328 914.69189453 C856.07281339 918.47089397 854.67917309 921.60467413 853.14111328 925.12939453 C852.44970806 927.90828066 852.44970806 927.90828066 852.14111328 930.12939453 C851.15111328 929.79939453 850.16111328 929.46939453 849.14111328 929.12939453 C848.81111328 931.43939453 848.48111328 933.74939453 848.14111328 936.12939453 C847.15111328 936.12939453 846.16111328 936.12939453 845.14111328 936.12939453 C844.81111328 937.77939453 844.48111328 939.42939453 844.14111328 941.12939453 C843.48111328 941.12939453 842.82111328 941.12939453 842.14111328 941.12939453 C842.24423828 941.83064453 842.34736328 942.53189453 842.45361328 943.25439453 C842.07762582 946.71347921 840.68422355 948.07141542 838.37548828 950.57470703 C836.58343018 952.83179286 836.02472129 955.41545564 835.14111328 958.12939453 C834.15111328 958.45939453 833.16111328 958.78939453 832.14111328 959.12939453 C831.67705078 960.58345703 831.67705078 960.58345703 831.20361328 962.06689453 C830.14111328 965.12939453 830.14111328 965.12939453 828.14111328 966.25439453 C827.48111328 966.54314453 826.82111328 966.83189453 826.14111328 967.12939453 C825.81111328 967.78939453 825.48111328 968.44939453 825.14111328 969.12939453 C824.14111328 971.12939453 824.14111328 971.12939453 822.20361328 972.06689453 C819.4250433 973.49827907 818.65088601 975.45297924 817.14111328 978.12939453 C816.48111328 978.45939453 815.82111328 978.78939453 815.14111328 979.12939453 C814.48898036 981.15402708 814.48898036 981.15402708 814.14111328 983.12939453 C812.0655768 983.68287093 810.29745364 984.12939453 808.14111328 984.12939453 C808.14111328 985.44939453 808.14111328 986.76939453 808.14111328 988.12939453 C805.14111328 990.12939453 805.14111328 990.12939453 802.14111328 990.12939453 C802.47111328 991.44939453 802.80111328 992.76939453 803.14111328 994.12939453 C802.06861328 994.54189453 800.99611328 994.95439453 799.89111328 995.37939453 C796.59038403 996.7768807 794.59753827 998.49751061 792.14111328 1001.12939453 C791.15111328 1001.45939453 790.16111328 1001.78939453 789.14111328 1002.12939453 C788.99416016 1002.76748047 788.84720703 1003.40556641 788.69580078 1004.06298828 C788.14111328 1006.12939453 788.14111328 1006.12939453 786.39892578 1007.28955078 C785.69509766 1007.58732422 784.99126953 1007.88509766 784.26611328 1008.19189453 C781.98029924 1009.17454153 780.3957845 1009.86046173 778.67626953 1011.67626953 C776.69401299 1013.55260397 775.1134006 1013.81577518 772.45361328 1014.31689453 C771.24125 1014.55472656 771.24125 1014.55472656 770.00439453 1014.79736328 C769.38951172 1014.90693359 768.77462891 1015.01650391 768.14111328 1015.12939453 C768.07408203 1015.75716797 768.00705078 1016.38494141 767.93798828 1017.03173828 C767.67501953 1017.72396484 767.41205078 1018.41619141 767.14111328 1019.12939453 C765.03173828 1020.07080078 765.03173828 1020.07080078 762.39111328 1020.69189453 C758.46369236 1021.71547165 755.61501931 1023.0267672 752.14111328 1025.12939453 C748.03690461 1026.4725901 744.47859901 1027.12939453 740.14111328 1027.12939453 C740.14111328 1027.78939453 740.14111328 1028.44939453 740.14111328 1029.12939453 C737.76611328 1030.19189453 737.76611328 1030.19189453 735.14111328 1031.12939453 C734.48111328 1030.79939453 733.82111328 1030.46939453 733.14111328 1030.12939453 C733.14111328 1030.78939453 733.14111328 1031.44939453 733.14111328 1032.12939453 C732.33673828 1032.25314453 731.53236328 1032.37689453 730.70361328 1032.50439453 C729.85798828 1032.71064453 729.01236328 1032.91689453 728.14111328 1033.12939453 C727.81111328 1033.78939453 727.48111328 1034.44939453 727.14111328 1035.12939453 C726.28259766 1035.08814453 725.42408203 1035.04689453 724.53955078 1035.00439453 C720.89909485 1035.13829636 718.1882134 1035.91264782 714.76611328 1037.12939453 C713.70650391 1037.50064453 712.64689453 1037.87189453 711.55517578 1038.25439453 C710.75853516 1038.54314453 709.96189453 1038.83189453 709.14111328 1039.12939453 C709.80111328 1039.45939453 710.46111328 1039.78939453 711.14111328 1040.12939453 C711.14111328 1040.78939453 711.14111328 1041.44939453 711.14111328 1042.12939453 C676.49111328 1042.12939453 641.84111328 1042.12939453 606.14111328 1042.12939453 C606.14111328 1041.46939453 606.14111328 1040.80939453 606.14111328 1040.12939453 C606.80111328 1039.79939453 607.46111328 1039.46939453 608.14111328 1039.12939453 C607.10986328 1038.84064453 606.07861328 1038.55189453 605.01611328 1038.25439453 C601.69103331 1037.30630656 598.41359875 1036.24682859 595.14111328 1035.12939453 C595.14111328 1034.46939453 595.14111328 1033.80939453 595.14111328 1033.12939453 C591.51111328 1032.79939453 587.88111328 1032.46939453 584.14111328 1032.12939453 C584.14111328 1031.46939453 584.14111328 1030.80939453 584.14111328 1030.12939453 C583.15111328 1030.45939453 582.16111328 1030.78939453 581.14111328 1031.12939453 C579.28826216 1030.18612487 577.43850869 1029.23596108 575.60986328 1028.24658203 C571.75147342 1026.50053852 567.71129514 1025.71879493 563.58251953 1024.84033203 C562.77685547 1024.60572266 561.97119141 1024.37111328 561.14111328 1024.12939453 C560.81111328 1023.46939453 560.48111328 1022.80939453 560.14111328 1022.12939453 C557.59536642 1021.03772878 555.00444043 1020.14394255 552.39111328 1019.22705078 C551.64861328 1018.86482422 550.90611328 1018.50259766 550.14111328 1018.12939453 C549.81111328 1017.13939453 549.48111328 1016.14939453 549.14111328 1015.12939453 C547.13789838 1014.25142574 547.13789838 1014.25142574 544.76611328 1013.69189453 C540.86355407 1012.52235786 539.37861856 1011.59752772 537.14111328 1008.12939453 C536.27486328 1007.79939453 535.40861328 1007.46939453 534.51611328 1007.12939453 C533.73236328 1006.79939453 532.94861328 1006.46939453 532.14111328 1006.12939453 C531.80777995 1004.7960612 531.47444661 1003.46272786 531.14111328 1002.12939453 C530.31611328 1001.82001953 529.49111328 1001.51064453 528.64111328 1001.19189453 C527.81611328 1000.84126953 526.99111328 1000.49064453 526.14111328 1000.12939453 C525.32861328 997.50439453 525.32861328 997.50439453 525.14111328 995.12939453 C523.16111328 995.12939453 521.18111328 995.12939453 519.14111328 995.12939453 C518.81111328 994.13939453 518.48111328 993.14939453 518.14111328 992.12939453 C518.80111328 992.12939453 519.46111328 992.12939453 520.14111328 992.12939453 C520.14111328 991.46939453 520.14111328 990.80939453 520.14111328 990.12939453 C519.46048828 989.92314453 518.77986328 989.71689453 518.07861328 989.50439453 C514.21193474 987.6944599 511.07693752 985.23095078 508.14111328 982.12939453 C507.81111328 981.13939453 507.48111328 980.14939453 507.14111328 979.12939453 C506.48111328 978.79939453 505.82111328 978.46939453 505.14111328 978.12939453 C505.14111328 977.46939453 505.14111328 976.80939453 505.14111328 976.12939453 C504.15111328 975.79939453 503.16111328 975.46939453 502.14111328 975.12939453 C501.81111328 974.46939453 501.48111328 973.80939453 501.14111328 973.12939453 C500.51849609 972.84837891 499.89587891 972.56736328 499.25439453 972.27783203 C496.60355831 970.83726669 495.82460165 969.34974036 494.32861328 966.75439453 C491.48259022 962.23424026 488.95785063 960.34509371 484.14111328 958.12939453 C484.14111328 956.47939453 484.14111328 954.82939453 484.14111328 953.12939453 C482.49111328 953.12939453 480.84111328 953.12939453 479.14111328 953.12939453 C478.48111328 951.47939453 477.82111328 949.82939453 477.14111328 948.12939453 C475.49111328 948.12939453 473.84111328 948.12939453 472.14111328 948.12939453 C472.01736328 946.76814453 472.01736328 946.76814453 471.89111328 945.37939453 C471.04061926 941.69392043 469.88389354 940.60674444 467.14111328 938.12939453 C467.14111328 937.46939453 467.14111328 936.80939453 467.14111328 936.12939453 C466.33673828 935.88189453 465.53236328 935.63439453 464.70361328 935.37939453 C462.14111328 934.12939453 462.14111328 934.12939453 461.32861328 932.00439453 C461.23580078 931.07626953 461.23580078 931.07626953 461.14111328 930.12939453 C459.82111328 930.12939453 458.50111328 930.12939453 457.14111328 930.12939453 C457.14111328 929.13939453 457.14111328 928.14939453 457.14111328 927.12939453 C456.48111328 927.12939453 455.82111328 927.12939453 455.14111328 927.12939453 C455.14111328 926.13939453 455.14111328 925.14939453 455.14111328 924.12939453 C453.82111328 923.79939453 452.50111328 923.46939453 451.14111328 923.12939453 C450.81111328 921.80939453 450.48111328 920.48939453 450.14111328 919.12939453 C449.54298828 919.10876953 448.94486328 919.08814453 448.32861328 919.06689453 C446.14111328 918.12939453 446.14111328 918.12939453 444.70361328 914.81689453 C444.46900391 914.18009766 444.23439453 913.54330078 443.99267578 912.88720703 C443.16734825 910.84387274 443.16734825 910.84387274 440.57861328 909.19189453 C437.88652262 906.91397167 437.71186835 906.23942275 437.01611328 902.94189453 C436.72736328 901.68376953 436.43861328 900.42564453 436.14111328 899.12939453 C435.15111328 898.79939453 434.16111328 898.46939453 433.14111328 898.12939453 C433.14111328 897.46939453 433.14111328 896.80939453 433.14111328 896.12939453 C431.82111328 895.46939453 430.50111328 894.80939453 429.14111328 894.12939453 C429.14111328 893.13939453 429.14111328 892.14939453 429.14111328 891.12939453 C428.56361328 890.88189453 427.98611328 890.63439453 427.39111328 890.37939453 C423.46371445 888.19750629 421.51265064 886.09539166 419.89111328 881.87939453 C419.64361328 880.97189453 419.39611328 880.06439453 419.14111328 879.12939453 C418.48111328 879.12939453 417.82111328 879.12939453 417.14111328 879.12939453 C417.01736328 878.32501953 416.89361328 877.52064453 416.76611328 876.69189453 C416.55986328 875.84626953 416.35361328 875.00064453 416.14111328 874.12939453 C415.48111328 873.79939453 414.82111328 873.46939453 414.14111328 873.12939453 C414.14111328 872.46939453 414.14111328 871.80939453 414.14111328 871.12939453 C413.37798828 870.90251953 412.61486328 870.67564453 411.82861328 870.44189453 C408.56581058 868.84843275 407.67850619 867.36601117 406.14111328 864.12939453 C406.14111328 863.46939453 406.14111328 862.80939453 406.14111328 862.12939453 C405.15111328 861.79939453 404.16111328 861.46939453 403.14111328 861.12939453 C401.95361328 858.56689453 401.95361328 858.56689453 401.14111328 856.12939453 C400.48111328 856.12939453 399.82111328 856.12939453 399.14111328 856.12939453 C398.81111328 857.11939453 398.48111328 858.10939453 398.14111328 859.12939453 C397.15111328 859.12939453 396.16111328 859.12939453 395.14111328 859.12939453 C395.14111328 857.14939453 395.14111328 855.16939453 395.14111328 853.12939453 C396.13111328 853.12939453 397.12111328 853.12939453 398.14111328 853.12939453 C398.14111328 852.13939453 398.14111328 851.14939453 398.14111328 850.12939453 C397.48111328 850.12939453 396.82111328 850.12939453 396.14111328 850.12939453 C396.14111328 849.46939453 396.14111328 848.80939453 396.14111328 848.12939453 C395.48111328 848.12939453 394.82111328 848.12939453 394.14111328 848.12939453 C394.14111328 848.78939453 394.14111328 849.44939453 394.14111328 850.12939453 C393.48111328 850.12939453 392.82111328 850.12939453 392.14111328 850.12939453 C392.47111328 848.14939453 392.80111328 846.16939453 393.14111328 844.12939453 C392.48111328 844.12939453 391.82111328 844.12939453 391.14111328 844.12939453 C389.01611328 842.25439453 389.01611328 842.25439453 387.14111328 840.12939453 C387.14111328 839.46939453 387.14111328 838.80939453 387.14111328 838.12939453 C385.82111328 837.79939453 384.50111328 837.46939453 383.14111328 837.12939453 C383.14111328 835.80939453 383.14111328 834.48939453 383.14111328 833.12939453 C382.48111328 833.12939453 381.82111328 833.12939453 381.14111328 833.12939453 C380.81111328 832.46939453 380.48111328 831.80939453 380.14111328 831.12939453 C379.81111328 832.77939453 379.48111328 834.42939453 379.14111328 836.12939453 C378.48111328 836.12939453 377.82111328 836.12939453 377.14111328 836.12939453 C377.14111328 833.15939453 377.14111328 830.18939453 377.14111328 827.12939453 C377.80111328 826.79939453 378.46111328 826.46939453 379.14111328 826.12939453 C375.75051497 822.41864489 375.75051497 822.41864489 371.39111328 820.06689453 C370.64861328 819.75751953 369.90611328 819.44814453 369.14111328 819.12939453 C368.32861328 817.00439453 368.32861328 817.00439453 368.14111328 815.12939453 C366.82111328 814.79939453 365.50111328 814.46939453 364.14111328 814.12939453 C364.14111328 812.14939453 364.14111328 810.16939453 364.14111328 808.12939453 C363.48111328 808.12939453 362.82111328 808.12939453 362.14111328 808.12939453 C362.14111328 808.78939453 362.14111328 809.44939453 362.14111328 810.12939453 C361.48111328 810.12939453 360.82111328 810.12939453 360.14111328 810.12939453 C360.14111328 809.46939453 360.14111328 808.80939453 360.14111328 808.12939453 C359.48111328 808.12939453 358.82111328 808.12939453 358.14111328 808.12939453 C358.14111328 806.80939453 358.14111328 805.48939453 358.14111328 804.12939453 C359.13111328 803.79939453 360.12111328 803.46939453 361.14111328 803.12939453 C360.48111328 802.71689453 359.82111328 802.30439453 359.14111328 801.87939453 C358.48111328 801.30189453 357.82111328 800.72439453 357.14111328 800.12939453 C357.14111328 798.80939453 357.14111328 797.48939453 357.14111328 796.12939453 C356.52236328 796.04689453 355.90361328 795.96439453 355.26611328 795.87939453 C353.14111328 795.12939453 353.14111328 795.12939453 352.01611328 793.12939453 C351.72736328 792.46939453 351.43861328 791.80939453 351.14111328 791.12939453 C350.48111328 790.79939453 349.82111328 790.46939453 349.14111328 790.12939453 C349.14111328 789.46939453 349.14111328 788.80939453 349.14111328 788.12939453 C348.55845703 788.04560547 347.97580078 787.96181641 347.37548828 787.87548828 C344.49044991 786.91212757 343.34410602 785.49959749 341.39111328 783.19189453 C340.77751953 782.48162109 340.16392578 781.77134766 339.53173828 781.03955078 C338.14111328 779.12939453 338.14111328 779.12939453 338.14111328 777.12939453 C337.15111328 776.79939453 336.16111328 776.46939453 335.14111328 776.12939453 C334.39111328 774.19189453 334.39111328 774.19189453 334.14111328 772.12939453 C334.47111328 771.46939453 334.80111328 770.80939453 335.14111328 770.12939453 C334.48111328 770.12939453 333.82111328 770.12939453 333.14111328 770.12939453 C333.14111328 769.46939453 333.14111328 768.80939453 333.14111328 768.12939453 C332.15111328 768.12939453 331.16111328 768.12939453 330.14111328 768.12939453 C328.18459154 763.43374236 328.18459154 763.43374236 327.82861328 760.94189453 C327.60173828 760.34376953 327.37486328 759.74564453 327.14111328 759.12939453 C325.48906872 758.42727559 323.82187559 757.7596804 322.14111328 757.12939453 C321.81111328 756.13939453 321.48111328 755.14939453 321.14111328 754.12939453 C319.1260297 753.39615657 319.1260297 753.39615657 317.14111328 753.12939453 C317.14111328 752.46939453 317.14111328 751.80939453 317.14111328 751.12939453 C316.15111328 751.12939453 315.16111328 751.12939453 314.14111328 751.12939453 C313.81111328 749.14939453 313.48111328 747.16939453 313.14111328 745.12939453 C312.15111328 744.79939453 311.16111328 744.46939453 310.14111328 744.12939453 C307.52852798 741.34825534 305.83222125 738.56703401 304.26611328 735.12939453 C302.2803773 730.9284949 299.77548511 728.95612817 296.14111328 726.12939453 C295.81111328 725.13939453 295.48111328 724.14939453 295.14111328 723.12939453 C294.15111328 722.79939453 293.16111328 722.46939453 292.14111328 722.12939453 C291.44452965 720.4750084 290.78014445 718.80685135 290.14111328 717.12939453 C289.16090953 716.10998263 288.1630832 715.10693097 287.14111328 714.12939453 C286.81111328 713.13939453 286.48111328 712.14939453 286.14111328 711.12939453 C285.15213157 710.11849633 284.1509891 709.11942021 283.14111328 708.12939453 C282.2952881 706.83811909 281.4834726 705.52404766 280.70361328 704.19189453 C278.80883349 701.07209095 276.8287421 698.62504986 274.14111328 696.12939453 C273.81111328 695.46939453 273.48111328 694.80939453 273.14111328 694.12939453 C271.16111328 694.12939453 269.18111328 694.12939453 267.14111328 694.12939453 C267.01994141 693.40494141 266.89876953 692.68048828 266.77392578 691.93408203 C265.63945434 684.32503202 265.63945434 684.32503202 263.14111328 677.12939453 C260.63115833 675.69016254 260.63115833 675.69016254 258.14111328 675.12939453 C258.14111328 674.46939453 258.14111328 673.80939453 258.14111328 673.12939453 C257.15111328 672.79939453 256.16111328 672.46939453 255.14111328 672.12939453 C254.45361328 670.06689453 254.45361328 670.06689453 254.14111328 668.12939453 C253.51720703 668.04431641 252.89330078 667.95923828 252.25048828 667.87158203 C250.14111328 667.12939453 250.14111328 667.12939453 249.09423828 665.38720703 C248.86220703 664.68337891 248.63017578 663.97955078 248.39111328 663.25439453 C248.14876953 662.55572266 247.90642578 661.85705078 247.65673828 661.13720703 C247.14111328 659.12939453 247.14111328 659.12939453 247.14111328 656.12939453 C246.21298828 655.94376953 246.21298828 655.94376953 245.26611328 655.75439453 C243.14111328 655.12939453 243.14111328 655.12939453 241.14111328 653.12939453 C241.14111328 652.13939453 241.14111328 651.14939453 241.14111328 650.12939453 C240.48111328 650.12939453 239.82111328 650.12939453 239.14111328 650.12939453 C238.48111328 649.46939453 237.82111328 648.80939453 237.14111328 648.12939453 C236.48111328 647.79939453 235.82111328 647.46939453 235.14111328 647.12939453 C234.83173828 646.46939453 234.52236328 645.80939453 234.20361328 645.12939453 C233.25192868 642.78331232 233.25192868 642.78331232 230.14111328 642.12939453 C230.14111328 640.47939453 230.14111328 638.82939453 230.14111328 637.12939453 C229.50173828 636.90251953 228.86236328 636.67564453 228.20361328 636.44189453 C226.14111328 635.12939453 226.14111328 635.12939453 225.45361328 632.69189453 C225.35048828 631.84626953 225.24736328 631.00064453 225.14111328 630.12939453 C224.81111328 629.13939453 224.48111328 628.14939453 224.14111328 627.12939453 C221.63663812 625.91069524 221.63663812 625.91069524 219.14111328 625.12939453 C219.14111328 624.46939453 219.14111328 623.80939453 219.14111328 623.12939453 C217.82111328 623.12939453 216.50111328 623.12939453 215.14111328 623.12939453 C215.14111328 622.13939453 215.14111328 621.14939453 215.14111328 620.12939453 C214.66673828 619.65501953 214.19236328 619.18064453 213.70361328 618.69189453 C211.89007737 616.87835862 211.57018033 615.6179834 211.14111328 613.12939453 C209.82111328 612.79939453 208.50111328 612.46939453 207.14111328 612.12939453 C207.04830078 611.29408203 207.04830078 611.29408203 206.95361328 610.44189453 C206.23666097 607.84112115 206.23666097 607.84112115 203.51611328 605.62939453 C202.73236328 604.80439453 201.94861328 603.97939453 201.14111328 603.12939453 C201.32861328 600.81689453 201.32861328 600.81689453 202.14111328 599.12939453 C201.48111328 599.12939453 200.82111328 599.12939453 200.14111328 599.12939453 C199.81111328 598.46939453 199.48111328 597.80939453 199.14111328 597.12939453 C198.15111328 596.79939453 197.16111328 596.46939453 196.14111328 596.12939453 C196.14111328 595.46939453 196.14111328 594.80939453 196.14111328 594.12939453 C195.48111328 594.12939453 194.82111328 594.12939453 194.14111328 594.12939453 C193.91423828 593.57251953 193.68736328 593.01564453 193.45361328 592.44189453 C191.16507269 588.40970396 187.9652343 585.67880854 184.14111328 583.12939453 C183.45361328 580.00439453 183.45361328 580.00439453 183.14111328 577.12939453 C181.49111328 577.12939453 179.84111328 577.12939453 178.14111328 577.12939453 C178.04830078 575.30408203 178.04830078 575.30408203 177.95361328 573.44189453 C177.42795483 568.94193959 175.55219276 567.10315613 172.14111328 564.12939453 C172.14111328 563.46939453 172.14111328 562.80939453 172.14111328 562.12939453 C171.48111328 562.12939453 170.82111328 562.12939453 170.14111328 562.12939453 C170.14111328 561.46939453 170.14111328 560.80939453 170.14111328 560.12939453 C169.15111328 559.79939453 168.16111328 559.46939453 167.14111328 559.12939453 C167.14111328 558.46939453 167.14111328 557.80939453 167.14111328 557.12939453 C165.82111328 556.79939453 164.50111328 556.46939453 163.14111328 556.12939453 C163.14111328 555.13939453 163.14111328 554.14939453 163.14111328 553.12939453 C162.48111328 553.12939453 161.82111328 553.12939453 161.14111328 553.12939453 C161.14111328 552.46939453 161.14111328 551.80939453 161.14111328 551.12939453 C157.55358586 549.26388027 153.86299136 547.70403525 150.14111328 546.12939453 C150.14111328 544.14939453 150.14111328 542.16939453 150.14111328 540.12939453 C148.82111328 539.46939453 147.50111328 538.80939453 146.14111328 538.12939453 C146.14111328 537.46939453 146.14111328 536.80939453 146.14111328 536.12939453 C145.48111328 536.12939453 144.82111328 536.12939453 144.14111328 536.12939453 C144.14111328 535.46939453 144.14111328 534.80939453 144.14111328 534.12939453 C143.56361328 534.08814453 142.98611328 534.04689453 142.39111328 534.00439453 C140.14111328 533.12939453 140.14111328 533.12939453 138.39111328 530.19189453 C135.30830405 525.99584863 133.13720581 526.11223241 128.14111328 525.12939453 C127.81111328 524.46939453 127.48111328 523.80939453 127.14111328 523.12939453 C125.19103587 522.89802941 123.24016931 522.67112701 121.28564453 522.48095703 C118.23291947 521.9805103 115.80170133 520.65923266 113.14111328 519.12939453 C113.47111328 518.13939453 113.80111328 517.14939453 114.14111328 516.12939453 C98.96111328 516.12939453 83.78111328 516.12939453 68.14111328 516.12939453 C68.14111328 517.44939453 68.14111328 518.76939453 68.14111328 520.12939453 C64.25801331 521.62968316 62.11172428 522.28215256 58.14111328 521.12939453 C55.51382189 521.204727 55.51382189 521.204727 53.14111328 522.12939453 C52.85236328 522.78939453 52.56361328 523.44939453 52.26611328 524.12939453 C51.89486328 524.78939453 51.52361328 525.44939453 51.14111328 526.12939453 C47.51611328 526.87939453 47.51611328 526.87939453 44.14111328 527.12939453 C44.05216797 527.74169922 43.96322266 528.35400391 43.87158203 528.98486328 C42.9360951 531.73129283 41.9850921 532.11588182 39.45361328 533.44189453 C35.55007635 535.68450102 33.08495285 538.21414102 30.36767578 541.77392578 C29.96291016 542.22123047 29.55814453 542.66853516 29.14111328 543.12939453 C28.48111328 543.12939453 27.82111328 543.12939453 27.14111328 543.12939453 C26.81111328 544.77939453 26.48111328 546.42939453 26.14111328 548.12939453 C24.49111328 548.45939453 22.84111328 548.78939453 21.14111328 549.12939453 C21.14111328 549.78939453 21.14111328 550.44939453 21.14111328 551.12939453 C20.48111328 551.12939453 19.82111328 551.12939453 19.14111328 551.12939453 C19.34736328 552.05751953 19.55361328 552.98564453 19.76611328 553.94189453 C20.14111328 557.12939453 20.14111328 557.12939453 18.14111328 560.12939453 C17.15111328 560.12939453 16.16111328 560.12939453 15.14111328 560.12939453 C14.81111328 563.75939453 14.48111328 567.38939453 14.14111328 571.12939453 C13.15111328 571.45939453 12.16111328 571.78939453 11.14111328 572.12939453 C8.99004024 575.52779117 8.43930057 579.11309934 7.70361328 583.00830078 C7.14111328 585.12939453 7.14111328 585.12939453 5.14111328 588.12939453 C4.68296528 590.4681772 4.68296528 590.4681772 4.51611328 593.00439453 C4.44134766 593.84744141 4.36658203 594.69048828 4.28955078 595.55908203 C4.14343463 598.08919846 4.11386927 600.59570185 4.14111328 603.12939453 C3.48111328 603.12939453 2.82111328 603.12939453 2.14111328 603.12939453 C2.14111328 606.75939453 2.14111328 610.38939453 2.14111328 614.12939453 C1.48111328 614.12939453 0.82111328 614.12939453 0.14111328 614.12939453 C-0.18888672 613.46939453 -0.51888672 612.80939453 -0.85888672 612.12939453 C-1.18888672 629.94939453 -1.51888672 647.76939453 -1.85888672 666.12939453 C-1.19888672 666.12939453 -0.53888672 666.12939453 0.14111328 666.12939453 C-0.18888672 664.47939453 -0.51888672 662.82939453 -0.85888672 661.12939453 C0.13111328 661.12939453 1.12111328 661.12939453 2.14111328 661.12939453 C2.20169922 661.91185547 2.26228516 662.69431641 2.32470703 663.50048828 C2.40849609 664.51240234 2.49228516 665.52431641 2.57861328 666.56689453 C2.65982422 667.57623047 2.74103516 668.58556641 2.82470703 669.62548828 C2.87322797 672.06580232 2.87322797 672.06580232 4.14111328 673.12939453 C4.1082217 674.60951561 4.03892837 676.08886828 3.95361328 677.56689453 C3.88850056 682.6239824 5.08048857 686.28819124 7.12939453 690.86767578 C8.14111328 693.12939453 8.14111328 693.12939453 9.20361328 696.56689453 C10.18445774 699.24786937 11.12785243 700.20001955 13.14111328 702.12939453 C14.7899527 705.51385439 15.14111328 707.26694149 15.14111328 711.12939453 C15.75986328 711.19126953 16.37861328 711.25314453 17.01611328 711.31689453 C19.14111328 712.12939453 19.14111328 712.12939453 20.32861328 714.37939453 C21.28856942 717.62847683 22.14111328 720.72749432 22.14111328 724.12939453 C23.79111328 724.12939453 25.44111328 724.12939453 27.14111328 724.12939453 C26.81111328 726.43939453 26.48111328 728.74939453 26.14111328 731.12939453 C27.79111328 731.78939453 29.44111328 732.44939453 31.14111328 733.12939453 C31.14111328 734.11939453 31.14111328 735.10939453 31.14111328 736.12939453 C32.6073259 737.73989841 32.6073259 737.73989841 34.51611328 739.19189453 C36.49243021 740.79002735 38.34105309 742.32933434 40.14111328 744.12939453 C40.80111328 744.12939453 41.46111328 744.12939453 42.14111328 744.12939453 C42.14111328 745.44939453 42.14111328 746.76939453 42.14111328 748.12939453 C42.80111328 748.12939453 43.46111328 748.12939453 44.14111328 748.12939453 C44.34736328 748.89251953 44.55361328 749.65564453 44.76611328 750.44189453 C46.57197006 753.97152369 48.64179596 754.41544319 52.14111328 756.12939453 C53.76611328 758.56689453 53.76611328 758.56689453 55.14111328 761.12939453 C55.86298828 761.85126953 56.58486328 762.57314453 57.32861328 763.31689453 C57.92673828 763.91501953 58.52486328 764.51314453 59.14111328 765.12939453 C59.14111328 765.78939453 59.14111328 766.44939453 59.14111328 767.12939453 C60.13111328 767.12939453 61.12111328 767.12939453 62.14111328 767.12939453 C62.47111328 766.46939453 62.80111328 765.80939453 63.14111328 765.12939453 C63.80111328 765.12939453 64.46111328 765.12939453 65.14111328 765.12939453 C65.22337996 768.17326178 65.11719545 770.20114801 64.14111328 773.12939453 C65.46111328 773.12939453 66.78111328 773.12939453 68.14111328 773.12939453 C67.81111328 775.10939453 67.48111328 777.08939453 67.14111328 779.12939453 C68.46111328 779.78939453 69.78111328 780.44939453 71.14111328 781.12939453 C71.14111328 782.11939453 71.14111328 783.10939453 71.14111328 784.12939453 C71.80111328 784.12939453 72.46111328 784.12939453 73.14111328 784.12939453 C74.76611328 785.44189453 74.76611328 785.44189453 76.14111328 787.12939453 C76.14111328 788.11939453 76.14111328 789.10939453 76.14111328 790.12939453 C76.90423828 790.15001953 77.66736328 790.17064453 78.45361328 790.19189453 C81.14111328 791.12939453 81.14111328 791.12939453 82.95361328 794.44189453 C84.14111328 798.12939453 84.14111328 798.12939453 84.14111328 802.12939453 C84.80111328 802.12939453 85.46111328 802.12939453 86.14111328 802.12939453 C88.31039628 805.29293224 89.80860537 808.54187323 91.14111328 812.12939453 C91.47111328 811.46939453 91.80111328 810.80939453 92.14111328 810.12939453 C92.80111328 810.12939453 93.46111328 810.12939453 94.14111328 810.12939453 C94.14111328 811.77939453 94.14111328 813.42939453 94.14111328 815.12939453 C94.80111328 815.12939453 95.46111328 815.12939453 96.14111328 815.12939453 C95.81111328 818.09939453 95.48111328 821.06939453 95.14111328 824.12939453 C96.13111328 824.45939453 97.12111328 824.78939453 98.14111328 825.12939453 C99.05517578 826.83642578 99.05517578 826.83642578 99.76611328 828.94189453 C100.12576172 829.9725 100.12576172 829.9725 100.49267578 831.02392578 C101.11550009 833.04622882 101.6508714 835.07130362 102.14111328 837.12939453 C103.13111328 836.79939453 104.12111328 836.46939453 105.14111328 836.12939453 C107.35147119 839.4449314 107.4988542 840.97939169 107.76611328 844.87939453 C107.84087891 845.94416016 107.91564453 847.00892578 107.99267578 848.10595703 C108.11017236 850.49917673 108.17142252 852.8599647 108.14111328 855.25439453 C107.92682343 858.07349283 107.92682343 858.07349283 109.14111328 860.12939453 C109.47111328 859.46939453 109.80111328 858.80939453 110.14111328 858.12939453 C111.13111328 858.12939453 112.12111328 858.12939453 113.14111328 858.12939453 C113.93015302 875.79884832 114.24976032 893.44366953 114.26611328 911.12939453 C114.26985962 912.5385614 114.26985962 912.5385614 114.27368164 913.97619629 C114.32845276 939.05589045 114.32845276 939.05589045 112.51611328 950.25439453 C111.92866566 953.03796186 111.92866566 953.03796186 112.89111328 955.19189453 C112.97361328 955.83126953 113.05611328 956.47064453 113.14111328 957.12939453 C111.88630051 958.54931424 110.62858958 959.96692039 109.34814453 961.36376953 C107.49612385 964.07287421 107.50583895 966.66062565 107.32080078 969.87158203 C107.06082169 973.13827585 106.13499833 976.01522139 105.14111328 979.12939453 C104.15111328 979.12939453 103.16111328 979.12939453 102.14111328 979.12939453 C101.81111328 977.80939453 101.48111328 976.48939453 101.14111328 975.12939453 C101.18236328 975.99564453 101.22361328 976.86189453 101.26611328 977.75439453 C101.13653607 981.25297921 100.38091672 983.8749105 99.14111328 987.12939453 C100.13111328 987.12939453 101.12111328 987.12939453 102.14111328 987.12939453 C102.14111328 989.10939453 102.14111328 991.08939453 102.14111328 993.12939453 C100.49111328 993.12939453 98.84111328 993.12939453 97.14111328 993.12939453 C96.81111328 992.13939453 96.48111328 991.14939453 96.14111328 990.12939453 C96.47111328 989.46939453 96.80111328 988.80939453 97.14111328 988.12939453 C96.48111328 988.12939453 95.82111328 988.12939453 95.14111328 988.12939453 C95.07923828 989.11939453 95.07923828 989.11939453 95.01611328 990.12939453 C93.760624 994.43392921 91.30813813 997.95449151 88.14111328 1001.12939453 C87.15111328 1001.12939453 86.16111328 1001.12939453 85.14111328 1001.12939453 C84.81111328 1002.77939453 84.48111328 1004.42939453 84.14111328 1006.12939453 C82.82111328 1006.45939453 81.50111328 1006.78939453 80.14111328 1007.12939453 C79.81111328 1009.10939453 79.48111328 1011.08939453 79.14111328 1013.12939453 C77.16111328 1013.12939453 75.18111328 1013.12939453 73.14111328 1013.12939453 C72.81111328 1014.77939453 72.48111328 1016.42939453 72.14111328 1018.12939453 C70.96548828 1018.25314453 70.96548828 1018.25314453 69.76611328 1018.37939453 C66.99645148 1018.83788854 66.99645148 1018.83788854 66.01611328 1021.12939453 C65.72736328 1021.78939453 65.43861328 1022.44939453 65.14111328 1023.12939453 C64.15111328 1023.45939453 63.16111328 1023.78939453 62.14111328 1024.12939453 C62.14111328 1024.78939453 62.14111328 1025.44939453 62.14111328 1026.12939453 C56.84699563 1030.12939453 56.84699563 1030.12939453 53.14111328 1030.12939453 C53.14111328 1030.78939453 53.14111328 1031.44939453 53.14111328 1032.12939453 C52.48111328 1032.12939453 51.82111328 1032.12939453 51.14111328 1032.12939453 C50.81111328 1033.11939453 50.48111328 1034.10939453 50.14111328 1035.12939453 C49.15111328 1035.45939453 48.16111328 1035.78939453 47.14111328 1036.12939453 C46.48111328 1036.78939453 45.82111328 1037.44939453 45.14111328 1038.12939453 C43.15290015 1038.52703716 41.15166989 1038.86714802 39.14111328 1039.12939453 C39.80111328 1039.45939453 40.46111328 1039.78939453 41.14111328 1040.12939453 C41.14111328 1040.78939453 41.14111328 1041.44939453 41.14111328 1042.12939453 C18.37111328 1042.12939453 -4.39888672 1042.12939453 -27.85888672 1042.12939453 C-27.85888672 1041.46939453 -27.85888672 1040.80939453 -27.85888672 1040.12939453 C-26.86888672 1039.79939453 -25.87888672 1039.46939453 -24.85888672 1039.12939453 C-26.37482422 1038.72720703 -26.37482422 1038.72720703 -27.92138672 1038.31689453 C-37.36369441 1035.62458684 -37.36369441 1035.62458684 -39.85888672 1033.12939453 C-40.86951172 1033.00564453 -41.88013672 1032.88189453 -42.92138672 1032.75439453 C-47.28303487 1032.06206943 -50.77517483 1030.7772081 -54.85888672 1029.12939453 C-54.85888672 1028.46939453 -54.85888672 1027.80939453 -54.85888672 1027.12939453 C-55.43896484 1027.00822266 -56.01904297 1026.88705078 -56.61669922 1026.76220703 C-68.1070619 1024.29727774 -68.1070619 1024.29727774 -72.85888672 1021.12939453 C-72.85888672 1020.46939453 -72.85888672 1019.80939453 -72.85888672 1019.12939453 C-73.94169922 1019.28408203 -73.94169922 1019.28408203 -75.04638672 1019.44189453 C-78.97692835 1019.00516768 -80.14439292 1016.9100955 -82.85888672 1014.12939453 C-86.02590095 1012.79375842 -86.02590095 1012.79375842 -88.85888672 1012.12939453 C-88.85888672 1011.46939453 -88.85888672 1010.80939453 -88.85888672 1010.12939453 C-89.60138672 1009.86126953 -90.34388672 1009.59314453 -91.10888672 1009.31689453 C-93.76680196 1008.1691584 -95.70528768 1007.05225082 -97.85888672 1005.12939453 C-98.35388672 1003.64439453 -98.35388672 1003.64439453 -98.85888672 1002.12939453 C-101.36336188 1000.91069524 -101.36336188 1000.91069524 -103.85888672 1000.12939453 C-103.85888672 999.46939453 -103.85888672 998.80939453 -103.85888672 998.12939453 C-104.51888672 998.12939453 -105.17888672 998.12939453 -105.85888672 998.12939453 C-105.85888672 997.13939453 -105.85888672 996.14939453 -105.85888672 995.12939453 C-107.50888672 995.12939453 -109.15888672 995.12939453 -110.85888672 995.12939453 C-111.18888672 993.47939453 -111.51888672 991.82939453 -111.85888672 990.12939453 C-112.47763672 989.98501953 -113.09638672 989.84064453 -113.73388672 989.69189453 C-115.85888672 989.12939453 -115.85888672 989.12939453 -117.85888672 988.12939453 C-117.85888672 986.80939453 -117.85888672 985.48939453 -117.85888672 984.12939453 C-118.47763672 984.06751953 -119.09638672 984.00564453 -119.73388672 983.94189453 C-120.43513672 983.67376953 -121.13638672 983.40564453 -121.85888672 983.12939453 C-122.54021123 981.46866604 -123.20630799 979.80162754 -123.85888672 978.12939453 C-125.87558499 976.99588919 -125.87558499 976.99588919 -127.85888672 976.12939453 C-128.35388672 974.64439453 -128.35388672 974.64439453 -128.85888672 973.12939453 C-131.83391794 971.9710378 -131.83391794 971.9710378 -134.85888672 971.12939453 C-135.85888672 970.12939453 -135.85888672 970.12939453 -135.92138672 967.56689453 C-135.90076172 966.76251953 -135.88013672 965.95814453 -135.85888672 965.12939453 C-137.50888672 965.12939453 -139.15888672 965.12939453 -140.85888672 965.12939453 C-140.75576172 964.36626953 -140.65263672 963.60314453 -140.54638672 962.81689453 C-140.64951172 961.93001953 -140.75263672 961.04314453 -140.85888672 960.12939453 C-142.09638672 959.44876953 -142.09638672 959.44876953 -143.35888672 958.75439453 C-144.18388672 958.21814453 -145.00888672 957.68189453 -145.85888672 957.12939453 C-146.17138672 953.44189453 -146.17138672 953.44189453 -145.85888672 950.12939453 C-147.83888672 949.46939453 -149.81888672 948.80939453 -151.85888672 948.12939453 C-151.95685547 947.44232422 -152.05482422 946.75525391 -152.15576172 946.04736328 C-152.30529297 945.14630859 -152.45482422 944.24525391 -152.60888672 943.31689453 C-152.74810547 942.42357422 -152.88732422 941.53025391 -153.03076172 940.60986328 C-154.04646521 937.56754386 -155.32664365 936.98571972 -157.85888672 935.12939453 C-158.80029297 932.82470703 -158.80029297 932.82470703 -159.42138672 930.25439453 C-160.22349319 927.20903426 -160.85773963 925.13122137 -162.54638672 922.44189453 C-164.34018032 919.28140104 -164.06864491 916.69528377 -163.85888672 913.12939453 C-164.47763672 912.94376953 -165.09638672 912.75814453 -165.73388672 912.56689453 C-168.98608859 910.36687562 -169.10784732 907.88459155 -169.85888672 904.12939453 C-169.98388672 900.69189453 -169.98388672 900.69189453 -169.85888672 898.12939453 C-170.51888672 898.12939453 -171.17888672 898.12939453 -171.85888672 898.12939453 C-172.18888672 896.80939453 -172.51888672 895.48939453 -172.85888672 894.12939453 C-173.51888672 894.12939453 -174.17888672 894.12939453 -174.85888672 894.12939453 C-174.98005859 893.50033203 -175.10123047 892.87126953 -175.22607422 892.22314453 C-176.28566688 886.81107127 -177.4748857 881.46768419 -178.85888672 876.12939453 C-179.84888672 876.12939453 -180.83888672 876.12939453 -181.85888672 876.12939453 C-181.82794922 874.67533203 -181.82794922 874.67533203 -181.79638672 873.19189453 C-181.50270173 870.25473558 -181.50270173 870.25473558 -182.85888672 869.12939453 C-183.18561514 866.80071198 -183.46962882 864.4659907 -183.73388672 862.12939453 C-184.37018932 856.82373528 -185.37738037 851.99913637 -187.26513672 846.99658203 C-188.10436419 844.35743248 -187.99269705 841.8725063 -187.85888672 839.12939453 C-188.18888672 838.46939453 -188.51888672 837.80939453 -188.85888672 837.12939453 C-188.98723002 835.66527004 -189.06100133 834.19613157 -189.10498047 832.72705078 C-189.13664307 831.84154541 -189.16830566 830.95604004 -189.20092773 830.04370117 C-189.2324292 829.10260498 -189.26393066 828.16150879 -189.29638672 827.19189453 C-189.56197867 820.40409844 -190.01746758 813.89679244 -191.44873047 807.23876953 C-191.9781944 804.51581218 -192.00829143 801.89338178 -191.85888672 799.12939453 C-192.84888672 799.12939453 -193.83888672 799.12939453 -194.85888672 799.12939453 C-194.95654297 792.97705078 -194.95654297 792.97705078 -194.85888672 791.12939453 C-194.52888672 790.79939453 -194.19888672 790.46939453 -193.85888672 790.12939453 C-193.76479193 788.10445222 -193.7414555 786.07619583 -193.74536133 784.04907227 C-193.74543686 782.74779892 -193.74551239 781.44652557 -193.74559021 780.1058197 C-193.75069763 778.67487551 -193.75591364 777.24393171 -193.76123047 775.81298828 C-193.76309469 774.35710193 -193.76451857 772.90121496 -193.76551819 771.44532776 C-193.76934306 767.60660074 -193.77917308 763.76791134 -193.79022217 759.92919922 C-193.80043694 756.01481638 -193.80501595 752.10042748 -193.81005859 748.18603516 C-193.82079538 740.5004711 -193.83787143 732.81493808 -193.85888672 725.12939453 C-194.51888672 725.12939453 -195.17888672 725.12939453 -195.85888672 725.12939453 C-195.85888672 714.89939453 -195.85888672 704.66939453 -195.85888672 694.12939453 C-195.19888672 694.12939453 -194.53888672 694.12939453 -193.85888672 694.12939453 C-193.85888672 681.91939453 -193.85888672 669.70939453 -193.85888672 657.12939453 C-194.51888672 657.12939453 -195.17888672 657.12939453 -195.85888672 657.12939453 C-195.85888672 648.54939453 -195.85888672 639.96939453 -195.85888672 631.12939453 C-195.19888672 631.12939453 -194.53888672 631.12939453 -193.85888672 631.12939453 C-193.85888672 627.49939453 -193.85888672 623.86939453 -193.85888672 620.12939453 C-194.51888672 620.12939453 -195.17888672 620.12939453 -195.85888672 620.12939453 C-195.90462228 577.99599994 -195.93988461 535.8626082 -195.96101738 493.72919372 C-195.96351892 488.75972937 -195.96610755 483.79026506 -195.96875 478.82080078 C-195.96927462 477.83143191 -195.96979924 476.84206304 -195.97033976 475.8227133 C-195.9790524 459.78383797 -195.99482708 443.74497692 -196.01319231 427.70611008 C-196.0318675 411.25990083 -196.04299839 394.81369909 -196.04706371 378.36747968 C-196.04981372 368.21184772 -196.0585125 358.05625609 -196.07471965 347.90063654 C-196.08525717 340.94515197 -196.08849472 333.98968838 -196.08588947 327.03419639 C-196.08460312 323.01579216 -196.08663312 318.99745864 -196.09729767 314.97906685 C-196.10697711 311.30521812 -196.10755651 307.63148814 -196.10068451 303.95763414 C-196.09942938 301.98870165 -196.10810272 300.0197707 -196.11704934 298.05085814 C-196.11306724 296.89387211 -196.10908514 295.73688607 -196.10498238 294.54483986 C-196.10574182 293.54009987 -196.10650126 292.53535987 -196.10728371 291.50017321 C-195.85888672 289.12939453 -195.85888672 289.12939453 -193.85888672 287.12939453 C-193.67127642 284.27224989 -193.60331354 281.51373467 -193.62841797 278.65673828 C-193.62887619 277.81849014 -193.62933441 276.980242 -193.62980652 276.11659241 C-193.63282948 274.34374578 -193.64071709 272.57090183 -193.65307617 270.7980957 C-193.67133607 268.07444931 -193.67358586 265.35114262 -193.67333984 262.62744141 C-193.6782548 260.90803741 -193.68408302 259.18863572 -193.69091797 257.46923828 C-193.6925872 256.23958595 -193.6925872 256.23958595 -193.69429016 254.98509216 C-193.36830181 251.25284305 -193.36830181 251.25284305 -194.85888672 248.12939453 C-194.93160413 245.77625898 -194.9425954 243.42105785 -194.92138672 241.06689453 C-194.91236328 239.77654297 -194.90333984 238.48619141 -194.89404297 237.15673828 C-194.88244141 236.15771484 -194.87083984 235.15869141 -194.85888672 234.12939453 C-193.86888672 234.12939453 -192.87888672 234.12939453 -191.85888672 234.12939453 C-191.90013672 233.28376953 -191.94138672 232.43814453 -191.98388672 231.56689453 C-191.85888672 228.12939453 -191.85888672 228.12939453 -190.88232422 224.91455078 C-189.80934117 220.94615165 -189.49174899 217.20904779 -189.35888672 213.12939453 C-189.18723124 207.85856164 -188.47261174 203.17697627 -186.85888672 198.12939453 C-186.51752745 196.79809339 -186.17962716 195.46581305 -185.85888672 194.12939453 C-185.19888672 194.12939453 -184.53888672 194.12939453 -183.85888672 194.12939453 C-183.80990234 193.22576172 -183.76091797 192.32212891 -183.71044922 191.39111328 C-183.63568359 190.21162109 -183.56091797 189.03212891 -183.48388672 187.81689453 C-183.41427734 186.64513672 -183.34466797 185.47337891 -183.27294922 184.26611328 C-182.85888672 181.12939453 -182.85888672 181.12939453 -180.85888672 178.12939453 C-181.51888672 178.12939453 -182.17888672 178.12939453 -182.85888672 178.12939453 C-181.21193749 172.42841642 -181.21193749 172.42841642 -179.37841797 170.87548828 C-176.42439543 167.48102022 -176.44449578 162.50276154 -175.70263672 158.18408203 C-175.42419922 157.17603516 -175.14576172 156.16798828 -174.85888672 155.12939453 C-173.86888672 154.79939453 -172.87888672 154.46939453 -171.85888672 154.12939453 C-171.08473238 152.2286209 -171.08473238 152.2286209 -170.73388672 149.94189453 C-170.57662109 149.12978516 -170.41935547 148.31767578 -170.25732422 147.48095703 C-169.9379791 145.59619468 -169.64420191 143.70710766 -169.35888672 141.81689453 C-168.87931794 139.23921235 -168.16180704 137.38778975 -166.85888672 135.12939453 C-166.19888672 135.12939453 -165.53888672 135.12939453 -164.85888672 135.12939453 C-164.52888672 131.82939453 -164.19888672 128.52939453 -163.85888672 125.12939453 C-162.86888672 124.79939453 -161.87888672 124.46939453 -160.85888672 124.12939453 C-160.04913351 121.43021717 -159.39652187 118.87960512 -158.85888672 116.12939453 C-158.65263672 115.13939453 -158.44638672 114.14939453 -158.23388672 113.12939453 C-158.04826172 112.13939453 -158.04826172 112.13939453 -157.85888672 111.12939453 C-157.19888672 111.12939453 -156.53888672 111.12939453 -155.85888672 111.12939453 C-155.85888672 110.46939453 -155.85888672 109.80939453 -155.85888672 109.12939453 C-154.86888672 109.12939453 -153.87888672 109.12939453 -152.85888672 109.12939453 C-152.19888672 107.14939453 -151.53888672 105.16939453 -150.85888672 103.12939453 C-150.19888672 103.12939453 -149.53888672 103.12939453 -148.85888672 103.12939453 C-148.85888672 102.46939453 -148.85888672 101.80939453 -148.85888672 101.12939453 C-147.48388672 99.50439453 -147.48388672 99.50439453 -145.85888672 98.12939453 C-145.19888672 98.12939453 -144.53888672 98.12939453 -143.85888672 98.12939453 C-143.85888672 97.46939453 -143.85888672 96.80939453 -143.85888672 96.12939453 C-144.51888672 96.12939453 -145.17888672 96.12939453 -145.85888672 96.12939453 C-145.85888672 94.47939453 -145.85888672 92.82939453 -145.85888672 91.12939453 C-145.09576172 91.08814453 -144.33263672 91.04689453 -143.54638672 91.00439453 C-140.53483559 90.35115844 -140.53483559 90.35115844 -139.04638672 87.06689453 C-138.65451172 86.09751953 -138.26263672 85.12814453 -137.85888672 84.12939453 C-137.19888672 84.12939453 -136.53888672 84.12939453 -135.85888672 84.12939453 C-135.78412109 83.54931641 -135.70935547 82.96923828 -135.63232422 82.37158203 C-134.57257137 76.07540335 -132.82493096 73.16430548 -127.85888672 69.12939453 C-127.19888672 69.12939453 -126.53888672 69.12939453 -125.85888672 69.12939453 C-125.85888672 68.46939453 -125.85888672 67.80939453 -125.85888672 67.12939453 C-124.86888672 66.46939453 -123.87888672 65.80939453 -122.85888672 65.12939453 C-122.85888672 64.46939453 -122.85888672 63.80939453 -122.85888672 63.12939453 C-120.89740798 61.74001376 -118.89722096 60.40335343 -116.85888672 59.12939453 C-117.35388672 57.14939453 -117.35388672 57.14939453 -117.85888672 55.12939453 C-115.87888672 55.62439453 -115.87888672 55.62439453 -113.85888672 56.12939453 C-112.99263672 54.42783203 -112.99263672 54.42783203 -112.10888672 52.69189453 C-110.14561681 49.21628244 -110.14561681 49.21628244 -107.79638672 48.50439453 C-107.15701172 48.38064453 -106.51763672 48.25689453 -105.85888672 48.12939453 C-105.36388672 47.30439453 -104.86888672 46.47939453 -104.35888672 45.62939453 C-102.85888672 43.12939453 -102.85888672 43.12939453 -100.79638672 42.56689453 C-100.15701172 42.42251953 -99.51763672 42.27814453 -98.85888672 42.12939453 C-98.39482422 41.17033203 -98.39482422 41.17033203 -97.92138672 40.19189453 C-96.85888672 38.12939453 -96.85888672 38.12939453 -94.23388672 36.87939453 C-93.45013672 36.63189453 -92.66638672 36.38439453 -91.85888672 36.12939453 C-92.35388672 34.14939453 -92.35388672 34.14939453 -92.85888672 32.12939453 C-91.78638672 32.00564453 -90.71388672 31.88189453 -89.60888672 31.75439453 C-86.48025057 31.23295517 -84.52408248 30.72851199 -81.85888672 29.12939453 C-81.85888672 28.13939453 -81.85888672 27.14939453 -81.85888672 26.12939453 C-79.46404654 25.13154446 -77.22078454 24.20177409 -74.67138672 23.69189453 C-72.46041427 23.21445527 -72.46041427 23.21445527 -70.85888672 20.12939453 C-68.54638672 19.68798828 -68.54638672 19.68798828 -65.85888672 19.56689453 C-61.88226929 19.51676648 -61.88226929 19.51676648 -58.85888672 17.12939453 C-58.85888672 16.46939453 -58.85888672 15.80939453 -58.85888672 15.12939453 C-53.14153567 12.67910123 -49.06859445 11.79673162 -42.85888672 12.12939453 C-42.19888672 10.47939453 -41.53888672 8.82939453 -40.85888672 7.12939453 C-32.27888672 6.79939453 -23.69888672 6.46939453 -14.85888672 6.12939453 C-15.18888672 4.47939453 -15.51888672 2.82939453 -15.85888672 1.12939453 C-14.55951172 1.15001953 -13.26013672 1.17064453 -11.92138672 1.19189453 C-10.56723039 1.21338908 -9.21132589 1.20087652 -7.85888672 1.12939453 C-5.95039717 -0.77909501 -2.52624452 0.0015421 0 0 Z M604.14111328 544.12939453 C603.48111328 544.78939453 602.82111328 545.44939453 602.14111328 546.12939453 C603.13111328 546.12939453 604.12111328 546.12939453 605.14111328 546.12939453 C604.81111328 545.46939453 604.48111328 544.80939453 604.14111328 544.12939453 Z " fill="#FFFFFF" transform="translate(211.85888671875,33.87060546875)"/>
<path d="M0 0 C1.98 0.99 1.98 0.99 4 2 C4 3.32 4 4.64 4 6 C2.68 6 1.36 6 0 6 C0 4.02 0 2.04 0 0 Z " fill="#FFFFFF" transform="translate(869,368)"/>
<path d="M0 0 C1.65 0 3.3 0 5 0 C5 1.32 5 2.64 5 4 C3.35 3.67 1.7 3.34 0 3 C0 2.01 0 1.02 0 0 Z " fill="#FFFFFF" transform="translate(1019,89)"/>
<path d="M0 0 C0.66 0 1.32 0 2 0 C2 1.98 2 3.96 2 6 C1.01 6 0.02 6 -1 6 C-1.042721 4.33388095 -1.04063832 2.66617115 -1 1 C-0.67 0.67 -0.34 0.34 0 0 Z " fill="#FFFFFF" transform="translate(212,650)"/>
<path d="M0 0 C0.66 0.33 1.32 0.66 2 1 C2 2.65 2 4.3 2 6 C1.01 6 0.02 6 -1 6 C-1.042721 4.33388095 -1.04063832 2.66617115 -1 1 C-0.67 0.67 -0.34 0.34 0 0 Z " fill="#FFFFFF" transform="translate(18,839)"/>
<path d="M0 0 C0.66 0 1.32 0 2 0 C1.67 1.65 1.34 3.3 1 5 C0.34 4.67 -0.32 4.34 -1 4 C-0.67 2.68 -0.34 1.36 0 0 Z " fill="#FFFFFF" transform="translate(1101,833)"/>
<path d="M0 0 C2 2 2 2 2 5 C1.01 5 0.02 5 -1 5 C-0.67 3.35 -0.34 1.7 0 0 Z " fill="#FFFFFF" transform="translate(457,691)"/>
<path d="M0 0 C0.99 0 1.98 0 3 0 C3 0.99 3 1.98 3 3 C2.01 3 1.02 3 0 3 C0 2.01 0 1.02 0 0 Z " fill="#FFFFFF" transform="translate(402,625)"/>
<path d="M0 0 C0.66 0 1.32 0 2 0 C2 1.32 2 2.64 2 4 C1.34 4 0.68 4 0 4 C0 2.68 0 1.36 0 0 Z " fill="#FFFFFF" transform="translate(298,832)"/>
<path d="M0 0 C0.99 0.33 1.98 0.66 3 1 C2.67 1.66 2.34 2.32 2 3 C1.34 3 0.68 3 0 3 C0 2.01 0 1.02 0 0 Z " fill="#FFFFFF" transform="translate(62,984)"/>
<path d="M0 0 C0.66 0.33 1.32 0.66 2 1 C2 1.66 2 2.32 2 3 C1.01 3 0.02 3 -1 3 C-0.67 2.01 -0.34 1.02 0 0 Z " fill="#FFFFFF" transform="translate(483,728)"/>
<path d="M0 0 C0.99 0 1.98 0 3 0 C2.67 0.99 2.34 1.98 2 3 C1.34 2.67 0.68 2.34 0 2 C0 1.34 0 0.68 0 0 Z " fill="#FFFFFF" transform="translate(801,570)"/>
<path d="M0 0 C0.99 0.33 1.98 0.66 3 1 C2.67 1.66 2.34 2.32 2 3 C1.34 3 0.68 3 0 3 C0 2.01 0 1.02 0 0 Z " fill="#FFFFFF" transform="translate(31,200)"/>
<path d="M0 0 C0.66 0 1.32 0 2 0 C2 0.99 2 1.98 2 3 C1.34 3 0.68 3 0 3 C0 2.01 0 1.02 0 0 Z " fill="#FFFFFF" transform="translate(1050,984)"/>
<path d="M0 0 C0.66 0 1.32 0 2 0 C2 0.99 2 1.98 2 3 C1.34 3 0.68 3 0 3 C0 2.01 0 1.02 0 0 Z " fill="#FFFFFF" transform="translate(56,972)"/>
<path d="M0 0 C0.66 0 1.32 0 2 0 C2 0.99 2 1.98 2 3 C1.34 3 0.68 3 0 3 C0 2.01 0 1.02 0 0 Z " fill="#FFFFFF" transform="translate(73,114)"/>
<path d="M0 0 C0.66 0 1.32 0 2 0 C2 0.66 2 1.32 2 2 C1.34 2 0.68 2 0 2 C0 1.34 0 0.68 0 0 Z " fill="#FFFFFF" transform="translate(794,564)"/>
<path d="M0 0 C0.66 0 1.32 0 2 0 C2 0.66 2 1.32 2 2 C1.34 2 0.68 2 0 2 C0 1.34 0 0.68 0 0 Z " fill="#FFFFFF" transform="translate(883,547)"/>
</svg>
