<?xml version="1.0" standalone="no"?>
<!DOCTYPE svg PUBLIC "-//W3C//DTD SVG 20010904//EN"
 "http://www.w3.org/TR/2001/REC-SVG-20010904/DTD/svg10.dtd">
<svg version="1.0" xmlns="http://www.w3.org/2000/svg"
 width="741.000000pt" height="740.000000pt" viewBox="0 0 741.000000 740.000000"
 preserveAspectRatio="xMidYMid meet">
<g transform="translate(0.000000,740.000000) scale(0.100000,-0.100000)"
fill="#FFFFFF" stroke="none">
<path d="M1413 7150 c-273 -31 -557 -152 -749 -320 -249 -218 -423 -567 -495
-995 -24 -139 -36 -443 -49 -1217 -24 -1410 -4 -2742 45 -3048 60 -369 194
-655 417 -885 158 -164 347 -285 561 -357 263 -88 604 -9 767 180 52 60 115
186 141 282 26 97 36 324 20 441 -48 336 -179 601 -420 848 -108 110 -189 229
-244 354 -229 532 -66 1173 340 1327 36 14 90 24 143 27 221 13 463 -111 720
-367 135 -134 210 -227 575 -710 1099 -1453 1622 -2068 1935 -2274 58 -38 212
-93 350 -125 325 -75 667 -43 945 89 417 198 726 606 836 1105 22 98 22 122
29 995 11 1334 11 2759 0 2978 -24 466 -114 777 -308 1067 -243 362 -585 575
-921 575 -125 0 -204 -17 -308 -65 -335 -155 -506 -486 -464 -902 27 -277 131
-560 296 -809 31 -46 108 -138 171 -205 189 -200 261 -326 320 -556 53 -209
52 -434 -2 -620 -36 -124 -78 -197 -159 -279 -195 -196 -434 -222 -681 -73
-132 80 -191 144 -706 777 -1517 1863 -1711 2098 -1849 2233 -283 280 -588
455 -895 513 -102 19 -270 27 -361 16z"/>
</g>
</svg>
